<svg width="224" height="160" viewBox="0 0 224 160" fill="none" xmlns="http://www.w3.org/2000/svg">
<rect x="0.5" y="0.5" width="223" height="159" rx="5.5" fill="white" stroke="#EAEAEA"/>
<mask id="mask0_0_2174" style="mask-type:luminance" maskUnits="userSpaceOnUse" x="0" y="0" width="224" height="160">
<rect x="0.5" y="0.5" width="223" height="159" rx="5.5" fill="white" stroke="white"/>
</mask>
<g mask="url(#mask0_0_2174)">
<rect x="169" y="105" width="38" height="38" rx="19" stroke="#FF3E79" stroke-width="2"/>
<path fill-rule="evenodd" clip-rule="evenodd" d="M189.5 124L185.707 120.207C185.317 119.817 185.317 119.183 185.707 118.793L185.793 118.707C186.183 118.317 186.817 118.317 187.207 118.707L191.793 123.293C192.183 123.683 192.183 124.317 191.793 124.707L187.207 129.293C186.817 129.683 186.183 129.683 185.793 129.293L185.707 129.207C185.317 128.817 185.317 128.183 185.707 127.793L189.5 124Z" fill="#FF3E79"/>
<path d="M21.4766 28.7578H18.5156V27.2031H21.4766C21.9922 27.2031 22.4089 27.1198 22.7266 26.9531C23.0443 26.7865 23.276 26.5573 23.4219 26.2656C23.5729 25.9688 23.6484 25.6302 23.6484 25.25C23.6484 24.8906 23.5729 24.5547 23.4219 24.2422C23.276 23.9245 23.0443 23.6693 22.7266 23.4766C22.4089 23.2839 21.9922 23.1875 21.4766 23.1875H19.1172V33H17.1562V21.625H21.4766C22.3568 21.625 23.1042 21.7812 23.7188 22.0938C24.3385 22.401 24.8099 22.8281 25.1328 23.375C25.4557 23.9167 25.6172 24.5365 25.6172 25.2344C25.6172 25.9688 25.4557 26.599 25.1328 27.125C24.8099 27.651 24.3385 28.0547 23.7188 28.3359C23.1042 28.6172 22.3568 28.7578 21.4766 28.7578ZM33.8938 29.2969H35.8469C35.7844 30.0417 35.576 30.7057 35.2219 31.2891C34.8677 31.8672 34.3703 32.3229 33.7297 32.6562C33.0891 32.9896 32.3104 33.1562 31.3938 33.1562C30.6906 33.1562 30.0578 33.0312 29.4953 32.7812C28.9328 32.526 28.451 32.1667 28.05 31.7031C27.649 31.2344 27.3417 30.6693 27.1281 30.0078C26.9198 29.3464 26.8156 28.6068 26.8156 27.7891V26.8438C26.8156 26.026 26.9224 25.2865 27.1359 24.625C27.3547 23.9635 27.6672 23.3984 28.0734 22.9297C28.4797 22.4557 28.9667 22.0938 29.5344 21.8438C30.1073 21.5938 30.7505 21.4688 31.4641 21.4688C32.3703 21.4688 33.1359 21.6354 33.7609 21.9688C34.3859 22.3021 34.8703 22.763 35.2141 23.3516C35.563 23.9401 35.7766 24.6146 35.8547 25.375H33.9016C33.8495 24.8854 33.7349 24.4661 33.5578 24.1172C33.3859 23.7682 33.1307 23.5026 32.7922 23.3203C32.4536 23.1328 32.0109 23.0391 31.4641 23.0391C31.0161 23.0391 30.6255 23.1224 30.2922 23.2891C29.9589 23.4557 29.6802 23.7005 29.4563 24.0234C29.2323 24.3464 29.063 24.7448 28.9484 25.2188C28.8391 25.6875 28.7844 26.224 28.7844 26.8281V27.7891C28.7844 28.362 28.8339 28.8828 28.9328 29.3516C29.037 29.8151 29.1932 30.2135 29.4016 30.5469C29.6151 30.8802 29.8859 31.138 30.2141 31.3203C30.5422 31.5026 30.9354 31.5938 31.3938 31.5938C31.951 31.5938 32.4016 31.5052 32.7453 31.3281C33.0943 31.151 33.3573 30.8932 33.5344 30.5547C33.7167 30.2109 33.8365 29.7917 33.8938 29.2969ZM41.2125 21.625H45.2359C46.1005 21.625 46.8375 21.7552 47.4469 22.0156C48.0562 22.276 48.5224 22.6615 48.8453 23.1719C49.1734 23.6771 49.3375 24.3021 49.3375 25.0469C49.3375 25.6146 49.2333 26.1146 49.025 26.5469C48.8167 26.9792 48.5224 27.3438 48.1422 27.6406C47.762 27.9323 47.3089 28.1589 46.7828 28.3203L46.1891 28.6094H42.5719L42.5562 27.0547H45.2672C45.7359 27.0547 46.1266 26.9714 46.4391 26.8047C46.7516 26.638 46.9859 26.4115 47.1422 26.125C47.3036 25.8333 47.3844 25.5052 47.3844 25.1406C47.3844 24.7448 47.3062 24.401 47.15 24.1094C46.999 23.8125 46.7646 23.5859 46.4469 23.4297C46.1292 23.2682 45.7255 23.1875 45.2359 23.1875H43.1734V33H41.2125V21.625ZM47.7047 33L45.0328 27.8906L47.0875 27.8828L49.7984 32.8984V33H47.7047ZM54.6297 33.1562C54.0047 33.1562 53.4396 33.0547 52.9344 32.8516C52.4344 32.6432 52.0073 32.3542 51.6531 31.9844C51.3042 31.6146 51.0359 31.1797 50.8484 30.6797C50.6609 30.1797 50.5672 29.6406 50.5672 29.0625V28.75C50.5672 28.0885 50.6635 27.4896 50.8563 26.9531C51.049 26.4167 51.3172 25.9583 51.6609 25.5781C52.0047 25.1927 52.4109 24.8984 52.8797 24.6953C53.3484 24.4922 53.8563 24.3906 54.4031 24.3906C55.0073 24.3906 55.5359 24.4922 55.9891 24.6953C56.4422 24.8984 56.8172 25.1849 57.1141 25.5547C57.4161 25.9193 57.6401 26.3542 57.7859 26.8594C57.937 27.3646 58.0125 27.9219 58.0125 28.5312V29.3359H51.4813V27.9844H56.1531V27.8359C56.1427 27.4974 56.075 27.1797 55.95 26.8828C55.8302 26.5859 55.6453 26.3464 55.3953 26.1641C55.1453 25.9818 54.812 25.8906 54.3953 25.8906C54.0828 25.8906 53.8042 25.9583 53.5594 26.0938C53.3198 26.224 53.1193 26.4141 52.9578 26.6641C52.7964 26.9141 52.6714 27.2161 52.5828 27.5703C52.4995 27.9193 52.4578 28.3125 52.4578 28.75V29.0625C52.4578 29.4323 52.5073 29.776 52.6063 30.0938C52.7104 30.4062 52.8615 30.6797 53.0594 30.9141C53.2573 31.1484 53.4969 31.3333 53.7781 31.4688C54.0594 31.599 54.3797 31.6641 54.7391 31.6641C55.1922 31.6641 55.5958 31.5729 55.95 31.3906C56.3042 31.2083 56.6115 30.9505 56.8719 30.6172L57.8641 31.5781C57.6818 31.8438 57.4448 32.099 57.1531 32.3438C56.8615 32.5833 56.5047 32.7786 56.0828 32.9297C55.6661 33.0807 55.1818 33.1562 54.6297 33.1562ZM61.1719 26.1719V36.25H59.2891V24.5469H61.0234L61.1719 26.1719ZM66.6797 28.6953V28.8594C66.6797 29.474 66.6068 30.0443 66.4609 30.5703C66.3203 31.0911 66.1094 31.5469 65.8281 31.9375C65.5521 32.3229 65.2109 32.6224 64.8047 32.8359C64.3984 33.0495 63.9297 33.1562 63.3984 33.1562C62.8724 33.1562 62.4115 33.0599 62.0156 32.8672C61.625 32.6693 61.2943 32.3906 61.0234 32.0312C60.7526 31.6719 60.5339 31.25 60.3672 30.7656C60.2057 30.276 60.0911 29.7396 60.0234 29.1562V28.5234C60.0911 27.9036 60.2057 27.3411 60.3672 26.8359C60.5339 26.3307 60.7526 25.8958 61.0234 25.5312C61.2943 25.1667 61.625 24.8854 62.0156 24.6875C62.4062 24.4896 62.862 24.3906 63.3828 24.3906C63.9141 24.3906 64.3854 24.4948 64.7969 24.7031C65.2083 24.9062 65.5547 25.1979 65.8359 25.5781C66.1172 25.9531 66.3281 26.4062 66.4688 26.9375C66.6094 27.4635 66.6797 28.0495 66.6797 28.6953ZM64.7969 28.8594V28.6953C64.7969 28.3047 64.7604 27.9427 64.6875 27.6094C64.6146 27.2708 64.5 26.974 64.3438 26.7188C64.1875 26.4635 63.987 26.2656 63.7422 26.125C63.5026 25.9792 63.2135 25.9062 62.875 25.9062C62.5417 25.9062 62.2552 25.9635 62.0156 26.0781C61.776 26.1875 61.5755 26.3411 61.4141 26.5391C61.2526 26.737 61.1276 26.9688 61.0391 27.2344C60.9505 27.4948 60.888 27.7786 60.8516 28.0859V29.6016C60.9141 29.9766 61.0208 30.3203 61.1719 30.6328C61.3229 30.9453 61.5365 31.1953 61.8125 31.3828C62.0938 31.5651 62.4531 31.6562 62.8906 31.6562C63.2292 31.6562 63.5182 31.5833 63.7578 31.4375C63.9974 31.2917 64.1927 31.0911 64.3438 30.8359C64.5 30.5755 64.6146 30.276 64.6875 29.9375C64.7604 29.599 64.7969 29.2396 64.7969 28.8594ZM72.8469 31.3047V27.2734C72.8469 26.9714 72.7922 26.7109 72.6828 26.4922C72.5734 26.2734 72.4068 26.1042 72.1828 25.9844C71.9641 25.8646 71.688 25.8047 71.3547 25.8047C71.0474 25.8047 70.7818 25.8568 70.5578 25.9609C70.3339 26.0651 70.1594 26.2057 70.0344 26.3828C69.9094 26.5599 69.8469 26.7604 69.8469 26.9844H67.9719C67.9719 26.651 68.0526 26.3281 68.2141 26.0156C68.3755 25.7031 68.6099 25.4245 68.9172 25.1797C69.2245 24.9349 69.5917 24.7422 70.0187 24.6016C70.4458 24.4609 70.925 24.3906 71.4562 24.3906C72.0917 24.3906 72.6542 24.4974 73.1437 24.7109C73.6385 24.9245 74.0266 25.2474 74.3078 25.6797C74.5943 26.1068 74.7375 26.6432 74.7375 27.2891V31.0469C74.7375 31.4323 74.7635 31.7786 74.8156 32.0859C74.8729 32.388 74.9536 32.651 75.0578 32.875V33H73.1281C73.0396 32.7969 72.9693 32.5391 72.9172 32.2266C72.8703 31.9089 72.8469 31.6016 72.8469 31.3047ZM73.1203 27.8594L73.1359 29.0234H71.7844C71.4354 29.0234 71.1281 29.0573 70.8625 29.125C70.5969 29.1875 70.3755 29.2812 70.1984 29.4062C70.0214 29.5312 69.8885 29.6823 69.8 29.8594C69.7115 30.0365 69.6672 30.237 69.6672 30.4609C69.6672 30.6849 69.7193 30.8906 69.8234 31.0781C69.9276 31.2604 70.0786 31.4036 70.2766 31.5078C70.4797 31.612 70.7245 31.6641 71.0109 31.6641C71.3964 31.6641 71.7323 31.5859 72.0187 31.4297C72.3104 31.2682 72.5396 31.0729 72.7062 30.8438C72.8729 30.6094 72.9615 30.388 72.9719 30.1797L73.5812 31.0156C73.5187 31.2292 73.412 31.4583 73.2609 31.7031C73.1099 31.9479 72.912 32.1823 72.6672 32.4062C72.4276 32.625 72.1385 32.8047 71.8 32.9453C71.4667 33.0859 71.0812 33.1562 70.6437 33.1562C70.0917 33.1562 69.5995 33.0469 69.1672 32.8281C68.7349 32.6042 68.3964 32.3047 68.1516 31.9297C67.9068 31.5495 67.7844 31.1198 67.7844 30.6406C67.7844 30.1927 67.8677 29.7969 68.0344 29.4531C68.2062 29.1042 68.4562 28.8125 68.7844 28.5781C69.1177 28.3438 69.524 28.1667 70.0031 28.0469C70.4823 27.9219 71.0292 27.8594 71.6437 27.8594H73.1203ZM78.5219 24.5469V33H76.6312V24.5469H78.5219ZM76.5062 22.3281C76.5062 22.0417 76.6 21.8047 76.7875 21.6172C76.9802 21.4245 77.2458 21.3281 77.5844 21.3281C77.9177 21.3281 78.1807 21.4245 78.3734 21.6172C78.5661 21.8047 78.6625 22.0417 78.6625 22.3281C78.6625 22.6094 78.5661 22.8438 78.3734 23.0312C78.1807 23.2188 77.9177 23.3125 77.5844 23.3125C77.2458 23.3125 76.9802 23.2188 76.7875 23.0312C76.6 22.8438 76.5062 22.6094 76.5062 22.3281ZM82.275 26.1562V33H80.3922V24.5469H82.1891L82.275 26.1562ZM84.8609 24.4922L84.8453 26.2422C84.7307 26.2214 84.6057 26.2057 84.4703 26.1953C84.3401 26.1849 84.2099 26.1797 84.0797 26.1797C83.7568 26.1797 83.4729 26.2266 83.2281 26.3203C82.9833 26.4089 82.7776 26.5391 82.6109 26.7109C82.4495 26.8776 82.3245 27.0807 82.2359 27.3203C82.1474 27.5599 82.0953 27.8281 82.0797 28.125L81.65 28.1562C81.65 27.625 81.7021 27.1328 81.8063 26.6797C81.9104 26.2266 82.0667 25.8281 82.275 25.4844C82.4885 25.1406 82.7542 24.8724 83.0719 24.6797C83.3948 24.487 83.7672 24.3906 84.1891 24.3906C84.3036 24.3906 84.426 24.401 84.5563 24.4219C84.6917 24.4427 84.7932 24.4661 84.8609 24.4922Z" fill="#1B1C21"/>
</g>
</svg>
