<svg width="240" height="160" viewBox="0 0 240 160" fill="none" xmlns="http://www.w3.org/2000/svg">
<rect x="0.5" y="0.5" width="239" height="159" rx="5.5" fill="white" stroke="#EAEAEA"/>
<mask id="mask0_0_779" style="mask-type:luminance" maskUnits="userSpaceOnUse" x="0" y="0" width="240" height="160">
<rect x="0.5" y="0.5" width="239" height="159" rx="5.5" fill="white" stroke="white"/>
</mask>
<g mask="url(#mask0_0_779)">
<rect x="185" y="105" width="38" height="38" rx="19" stroke="#FF3E79" stroke-width="2"/>
<path fill-rule="evenodd" clip-rule="evenodd" d="M205.5 124L201.707 120.207C201.317 119.817 201.317 119.183 201.707 118.793L201.793 118.707C202.183 118.317 202.817 118.317 203.207 118.707L207.793 123.293C208.183 123.683 208.183 124.317 207.793 124.707L203.207 129.293C202.817 129.683 202.183 129.683 201.793 129.293L201.707 129.207C201.317 128.817 201.317 128.183 201.707 127.793L205.5 124Z" fill="#FF3E79"/>
<path d="M21.4766 28.7578H18.5156V27.2031H21.4766C21.9922 27.2031 22.4089 27.1198 22.7266 26.9531C23.0443 26.7865 23.276 26.5573 23.4219 26.2656C23.5729 25.9688 23.6484 25.6302 23.6484 25.25C23.6484 24.8906 23.5729 24.5547 23.4219 24.2422C23.276 23.9245 23.0443 23.6693 22.7266 23.4766C22.4089 23.2839 21.9922 23.1875 21.4766 23.1875H19.1172V33H17.1562V21.625H21.4766C22.3568 21.625 23.1042 21.7812 23.7188 22.0938C24.3385 22.401 24.8099 22.8281 25.1328 23.375C25.4557 23.9167 25.6172 24.5365 25.6172 25.2344C25.6172 25.9688 25.4557 26.599 25.1328 27.125C24.8099 27.651 24.3385 28.0547 23.7188 28.3359C23.1042 28.6172 22.3568 28.7578 21.4766 28.7578ZM30.6047 33.1562C29.9797 33.1562 29.4146 33.0547 28.9094 32.8516C28.4094 32.6432 27.9823 32.3542 27.6281 31.9844C27.2792 31.6146 27.0109 31.1797 26.8234 30.6797C26.6359 30.1797 26.5422 29.6406 26.5422 29.0625V28.75C26.5422 28.0885 26.6385 27.4896 26.8313 26.9531C27.024 26.4167 27.2922 25.9583 27.6359 25.5781C27.9797 25.1927 28.3859 24.8984 28.8547 24.6953C29.3234 24.4922 29.8313 24.3906 30.3781 24.3906C30.9823 24.3906 31.5109 24.4922 31.9641 24.6953C32.4172 24.8984 32.7922 25.1849 33.0891 25.5547C33.3911 25.9193 33.6151 26.3542 33.7609 26.8594C33.912 27.3646 33.9875 27.9219 33.9875 28.5312V29.3359H27.4563V27.9844H32.1281V27.8359C32.1177 27.4974 32.05 27.1797 31.925 26.8828C31.8052 26.5859 31.6203 26.3464 31.3703 26.1641C31.1203 25.9818 30.787 25.8906 30.3703 25.8906C30.0578 25.8906 29.7792 25.9583 29.5344 26.0938C29.2948 26.224 29.0943 26.4141 28.9328 26.6641C28.7714 26.9141 28.6464 27.2161 28.5578 27.5703C28.4745 27.9193 28.4328 28.3125 28.4328 28.75V29.0625C28.4328 29.4323 28.4823 29.776 28.5813 30.0938C28.6854 30.4062 28.8365 30.6797 29.0344 30.9141C29.2323 31.1484 29.4719 31.3333 29.7531 31.4688C30.0344 31.599 30.3547 31.6641 30.7141 31.6641C31.1672 31.6641 31.5708 31.5729 31.925 31.3906C32.2792 31.2083 32.5865 30.9505 32.8469 30.6172L33.8391 31.5781C33.6568 31.8438 33.4198 32.099 33.1281 32.3438C32.8365 32.5833 32.4797 32.7786 32.0578 32.9297C31.6411 33.0807 31.1568 33.1562 30.6047 33.1562ZM40.2797 30.7188L42.7953 24.5469H44.4281L40.9203 33H39.6391L36.1391 24.5469H37.7719L40.2797 30.7188ZM37.2875 24.5469V33H35.4047V24.5469H37.2875ZM43.2719 33V24.5469H45.1625V33H43.2719ZM46.7125 28.8672V28.6875C46.7125 28.0781 46.801 27.513 46.9781 26.9922C47.1552 26.4661 47.4104 26.0104 47.7437 25.625C48.0823 25.2344 48.4937 24.9323 48.9781 24.7188C49.4677 24.5 50.0198 24.3906 50.6344 24.3906C51.2542 24.3906 51.8062 24.5 52.2906 24.7188C52.7802 24.9323 53.1943 25.2344 53.5328 25.625C53.8714 26.0104 54.1292 26.4661 54.3062 26.9922C54.4833 27.513 54.5719 28.0781 54.5719 28.6875V28.8672C54.5719 29.4766 54.4833 30.0417 54.3062 30.5625C54.1292 31.0833 53.8714 31.5391 53.5328 31.9297C53.1943 32.3151 52.7828 32.6172 52.2984 32.8359C51.8141 33.0495 51.2646 33.1562 50.65 33.1562C50.0302 33.1562 49.4755 33.0495 48.9859 32.8359C48.5016 32.6172 48.0901 32.3151 47.7516 31.9297C47.413 31.5391 47.1552 31.0833 46.9781 30.5625C46.801 30.0417 46.7125 29.4766 46.7125 28.8672ZM48.5953 28.6875V28.8672C48.5953 29.2474 48.6344 29.6068 48.7125 29.9453C48.7906 30.2839 48.913 30.5807 49.0797 30.8359C49.2464 31.0911 49.4599 31.2917 49.7203 31.4375C49.9807 31.5833 50.2906 31.6562 50.65 31.6562C50.999 31.6562 51.301 31.5833 51.5562 31.4375C51.8167 31.2917 52.0302 31.0911 52.1969 30.8359C52.3635 30.5807 52.4859 30.2839 52.5641 29.9453C52.6474 29.6068 52.6891 29.2474 52.6891 28.8672V28.6875C52.6891 28.3125 52.6474 27.9583 52.5641 27.625C52.4859 27.2865 52.3609 26.987 52.1891 26.7266C52.0224 26.4661 51.8089 26.263 51.5484 26.1172C51.2932 25.9661 50.9885 25.8906 50.6344 25.8906C50.2802 25.8906 49.9729 25.9661 49.7125 26.1172C49.4573 26.263 49.2464 26.4661 49.0797 26.7266C48.913 26.987 48.7906 27.2865 48.7125 27.625C48.6344 27.9583 48.5953 28.3125 48.5953 28.6875ZM61.7234 28.0781V29.5625H57.3484V28.0781H61.7234ZM57.8953 24.5469V33H56.0125V24.5469H57.8953ZM63.0828 24.5469V33H61.2V24.5469H63.0828ZM68.8125 24.5469V33H66.9219V24.5469H68.8125ZM71.5859 24.5469V26.0312H64.1953V24.5469H71.5859ZM85.2359 30.7188L87.7516 24.5469H89.3844L85.8766 33H84.5953L81.0953 24.5469H82.7281L85.2359 30.7188ZM82.2438 24.5469V33H80.3609V24.5469H82.2438ZM88.2281 33V24.5469H90.1188V33H88.2281ZM91.6687 28.8672V28.6875C91.6687 28.0781 91.7573 27.513 91.9344 26.9922C92.1115 26.4661 92.3667 26.0104 92.7 25.625C93.0385 25.2344 93.45 24.9323 93.9344 24.7188C94.424 24.5 94.976 24.3906 95.5906 24.3906C96.2104 24.3906 96.7625 24.5 97.2469 24.7188C97.7365 24.9323 98.1505 25.2344 98.4891 25.625C98.8276 26.0104 99.0854 26.4661 99.2625 26.9922C99.4396 27.513 99.5281 28.0781 99.5281 28.6875V28.8672C99.5281 29.4766 99.4396 30.0417 99.2625 30.5625C99.0854 31.0833 98.8276 31.5391 98.4891 31.9297C98.1505 32.3151 97.7391 32.6172 97.2547 32.8359C96.7703 33.0495 96.2208 33.1562 95.6062 33.1562C94.9865 33.1562 94.4318 33.0495 93.9422 32.8359C93.4578 32.6172 93.0464 32.3151 92.7078 31.9297C92.3693 31.5391 92.1115 31.0833 91.9344 30.5625C91.7573 30.0417 91.6687 29.4766 91.6687 28.8672ZM93.5516 28.6875V28.8672C93.5516 29.2474 93.5906 29.6068 93.6687 29.9453C93.7469 30.2839 93.8693 30.5807 94.0359 30.8359C94.2026 31.0911 94.4161 31.2917 94.6766 31.4375C94.937 31.5833 95.2469 31.6562 95.6062 31.6562C95.9552 31.6562 96.2573 31.5833 96.5125 31.4375C96.7729 31.2917 96.9865 31.0911 97.1531 30.8359C97.3198 30.5807 97.4422 30.2839 97.5203 29.9453C97.6036 29.6068 97.6453 29.2474 97.6453 28.8672V28.6875C97.6453 28.3125 97.6036 27.9583 97.5203 27.625C97.4422 27.2865 97.3172 26.987 97.1453 26.7266C96.9786 26.4661 96.7651 26.263 96.5047 26.1172C96.2495 25.9661 95.9448 25.8906 95.5906 25.8906C95.2365 25.8906 94.9292 25.9661 94.6687 26.1172C94.4135 26.263 94.2026 26.4661 94.0359 26.7266C93.8693 26.987 93.7469 27.2865 93.6687 27.625C93.5906 27.9583 93.5516 28.3125 93.5516 28.6875ZM106.68 28.0781V29.5625H102.305V28.0781H106.68ZM102.852 24.5469V33H100.969V24.5469H102.852ZM108.039 24.5469V33H106.156V24.5469H108.039ZM111.792 30.25L115.113 24.5469H116.995V33H115.113V27.2891L111.792 33H109.909V24.5469H111.792V30.25ZM122.709 24.5469V33H120.819V24.5469H122.709ZM125.483 24.5469V26.0312H118.092V24.5469H125.483ZM125.884 28.8672V28.6875C125.884 28.0781 125.973 27.513 126.15 26.9922C126.327 26.4661 126.582 26.0104 126.916 25.625C127.254 25.2344 127.666 24.9323 128.15 24.7188C128.64 24.5 129.192 24.3906 129.806 24.3906C130.426 24.3906 130.978 24.5 131.463 24.7188C131.952 24.9323 132.366 25.2344 132.705 25.625C133.043 26.0104 133.301 26.4661 133.478 26.9922C133.655 27.513 133.744 28.0781 133.744 28.6875V28.8672C133.744 29.4766 133.655 30.0417 133.478 30.5625C133.301 31.0833 133.043 31.5391 132.705 31.9297C132.366 32.3151 131.955 32.6172 131.47 32.8359C130.986 33.0495 130.436 33.1562 129.822 33.1562C129.202 33.1562 128.647 33.0495 128.158 32.8359C127.673 32.6172 127.262 32.3151 126.923 31.9297C126.585 31.5391 126.327 31.0833 126.15 30.5625C125.973 30.0417 125.884 29.4766 125.884 28.8672ZM127.767 28.6875V28.8672C127.767 29.2474 127.806 29.6068 127.884 29.9453C127.963 30.2839 128.085 30.5807 128.252 30.8359C128.418 31.0911 128.632 31.2917 128.892 31.4375C129.153 31.5833 129.463 31.6562 129.822 31.6562C130.171 31.6562 130.473 31.5833 130.728 31.4375C130.989 31.2917 131.202 31.0911 131.369 30.8359C131.535 30.5807 131.658 30.2839 131.736 29.9453C131.819 29.6068 131.861 29.2474 131.861 28.8672V28.6875C131.861 28.3125 131.819 27.9583 131.736 27.625C131.658 27.2865 131.533 26.987 131.361 26.7266C131.194 26.4661 130.981 26.263 130.72 26.1172C130.465 25.9661 130.16 25.8906 129.806 25.8906C129.452 25.8906 129.145 25.9661 128.884 26.1172C128.629 26.263 128.418 26.4661 128.252 26.7266C128.085 26.987 127.963 27.2865 127.884 27.625C127.806 27.9583 127.767 28.3125 127.767 28.6875ZM137.012 26.1719V36.25H135.13V24.5469H136.864L137.012 26.1719ZM142.52 28.6953V28.8594C142.52 29.474 142.447 30.0443 142.302 30.5703C142.161 31.0911 141.95 31.5469 141.669 31.9375C141.393 32.3229 141.052 32.6224 140.645 32.8359C140.239 33.0495 139.77 33.1562 139.239 33.1562C138.713 33.1562 138.252 33.0599 137.856 32.8672C137.466 32.6693 137.135 32.3906 136.864 32.0312C136.593 31.6719 136.374 31.25 136.208 30.7656C136.046 30.276 135.932 29.7396 135.864 29.1562V28.5234C135.932 27.9036 136.046 27.3411 136.208 26.8359C136.374 26.3307 136.593 25.8958 136.864 25.5312C137.135 25.1667 137.466 24.8854 137.856 24.6875C138.247 24.4896 138.703 24.3906 139.223 24.3906C139.755 24.3906 140.226 24.4948 140.637 24.7031C141.049 24.9062 141.395 25.1979 141.677 25.5781C141.958 25.9531 142.169 26.4062 142.309 26.9375C142.45 27.4635 142.52 28.0495 142.52 28.6953ZM140.637 28.8594V28.6953C140.637 28.3047 140.601 27.9427 140.528 27.6094C140.455 27.2708 140.341 26.974 140.184 26.7188C140.028 26.4635 139.828 26.2656 139.583 26.125C139.343 25.9792 139.054 25.9062 138.716 25.9062C138.382 25.9062 138.096 25.9635 137.856 26.0781C137.617 26.1875 137.416 26.3411 137.255 26.5391C137.093 26.737 136.968 26.9688 136.88 27.2344C136.791 27.4948 136.729 27.7786 136.692 28.0859V29.6016C136.755 29.9766 136.861 30.3203 137.012 30.6328C137.164 30.9453 137.377 31.1953 137.653 31.3828C137.934 31.5651 138.294 31.6562 138.731 31.6562C139.07 31.6562 139.359 31.5833 139.598 31.4375C139.838 31.2917 140.033 31.0911 140.184 30.8359C140.341 30.5755 140.455 30.276 140.528 29.9375C140.601 29.599 140.637 29.2396 140.637 28.8594ZM143.562 28.8672V28.6875C143.562 28.0781 143.651 27.513 143.828 26.9922C144.005 26.4661 144.26 26.0104 144.594 25.625C144.932 25.2344 145.344 24.9323 145.828 24.7188C146.318 24.5 146.87 24.3906 147.484 24.3906C148.104 24.3906 148.656 24.5 149.141 24.7188C149.63 24.9323 150.044 25.2344 150.383 25.625C150.721 26.0104 150.979 26.4661 151.156 26.9922C151.333 27.513 151.422 28.0781 151.422 28.6875V28.8672C151.422 29.4766 151.333 30.0417 151.156 30.5625C150.979 31.0833 150.721 31.5391 150.383 31.9297C150.044 32.3151 149.633 32.6172 149.148 32.8359C148.664 33.0495 148.115 33.1562 147.5 33.1562C146.88 33.1562 146.326 33.0495 145.836 32.8359C145.352 32.6172 144.94 32.3151 144.602 31.9297C144.263 31.5391 144.005 31.0833 143.828 30.5625C143.651 30.0417 143.562 29.4766 143.562 28.8672ZM145.445 28.6875V28.8672C145.445 29.2474 145.484 29.6068 145.562 29.9453C145.641 30.2839 145.763 30.5807 145.93 30.8359C146.096 31.0911 146.31 31.2917 146.57 31.4375C146.831 31.5833 147.141 31.6562 147.5 31.6562C147.849 31.6562 148.151 31.5833 148.406 31.4375C148.667 31.2917 148.88 31.0911 149.047 30.8359C149.214 30.5807 149.336 30.2839 149.414 29.9453C149.497 29.6068 149.539 29.2474 149.539 28.8672V28.6875C149.539 28.3125 149.497 27.9583 149.414 27.625C149.336 27.2865 149.211 26.987 149.039 26.7266C148.872 26.4661 148.659 26.263 148.398 26.1172C148.143 25.9661 147.839 25.8906 147.484 25.8906C147.13 25.8906 146.823 25.9661 146.562 26.1172C146.307 26.263 146.096 26.4661 145.93 26.7266C145.763 26.987 145.641 27.2865 145.562 27.625C145.484 27.9583 145.445 28.3125 145.445 28.6875ZM156.909 29.3828H154.206L154.191 28.0547H156.409C156.774 28.0547 157.073 28.0182 157.308 27.9453C157.547 27.8724 157.724 27.763 157.839 27.6172C157.954 27.4661 158.011 27.2839 158.011 27.0703C158.011 26.8932 157.977 26.7396 157.909 26.6094C157.842 26.474 157.738 26.3646 157.597 26.2812C157.461 26.1927 157.29 26.1302 157.081 26.0938C156.878 26.0521 156.641 26.0312 156.37 26.0312H154.831V33H152.948V24.5469H156.37C156.912 24.5469 157.399 24.5938 157.831 24.6875C158.269 24.7812 158.641 24.9245 158.948 25.1172C159.256 25.3099 159.49 25.5547 159.652 25.8516C159.818 26.1432 159.902 26.487 159.902 26.8828C159.902 27.1432 159.844 27.388 159.73 27.6172C159.62 27.8464 159.456 28.0495 159.238 28.2266C159.019 28.4036 158.751 28.5495 158.433 28.6641C158.115 28.7734 157.751 28.8411 157.339 28.8672L156.909 29.3828ZM156.909 33H153.659L154.409 31.5156H156.909C157.243 31.5156 157.519 31.474 157.738 31.3906C157.956 31.3073 158.118 31.1875 158.222 31.0312C158.331 30.8698 158.386 30.6797 158.386 30.4609C158.386 30.237 158.334 30.0443 158.23 29.8828C158.126 29.7214 157.964 29.599 157.745 29.5156C157.532 29.4271 157.253 29.3828 156.909 29.3828H154.761L154.777 28.0547H157.331L157.87 28.5703C158.407 28.6068 158.852 28.7214 159.206 28.9141C159.56 29.1068 159.826 29.349 160.003 29.6406C160.18 29.9323 160.269 30.25 160.269 30.5938C160.269 30.9896 160.193 31.3385 160.042 31.6406C159.896 31.9427 159.678 32.1953 159.386 32.3984C159.099 32.5964 158.748 32.7474 158.331 32.8516C157.915 32.9505 157.441 33 156.909 33Z" fill="#1B1C21"/>
</g>
</svg>
