<svg width="260" height="200" viewBox="0 0 260 200" fill="none" xmlns="http://www.w3.org/2000/svg">
<rect width="260" height="200" rx="6" fill="white"/>
<rect x="125" y="152" width="119" height="32" rx="16" fill="#FF3E79"/>
<path d="M174.166 167.535V167.939C174.166 168.588 174.079 169.17 173.903 169.686C173.727 170.201 173.479 170.641 173.159 171.004C172.838 171.363 172.455 171.639 172.01 171.83C171.569 172.021 171.079 172.117 170.539 172.117C170.004 172.117 169.514 172.021 169.069 171.83C168.627 171.639 168.245 171.363 167.92 171.004C167.596 170.641 167.344 170.201 167.164 169.686C166.989 169.17 166.901 168.588 166.901 167.939V167.535C166.901 166.883 166.989 166.301 167.164 165.789C167.34 165.273 167.588 164.834 167.909 164.471C168.233 164.107 168.616 163.83 169.057 163.639C169.502 163.447 169.993 163.352 170.528 163.352C171.067 163.352 171.557 163.447 171.998 163.639C172.444 163.83 172.827 164.107 173.147 164.471C173.471 164.834 173.721 165.273 173.897 165.789C174.077 166.301 174.166 166.883 174.166 167.535ZM172.391 167.939V167.523C172.391 167.07 172.35 166.672 172.268 166.328C172.186 165.984 172.065 165.695 171.905 165.461C171.745 165.227 171.549 165.051 171.319 164.934C171.088 164.812 170.825 164.752 170.528 164.752C170.231 164.752 169.967 164.812 169.737 164.934C169.51 165.051 169.317 165.227 169.157 165.461C169 165.695 168.881 165.984 168.799 166.328C168.717 166.672 168.676 167.07 168.676 167.523V167.939C168.676 168.389 168.717 168.787 168.799 169.135C168.881 169.479 169.002 169.77 169.162 170.008C169.323 170.242 169.518 170.42 169.748 170.541C169.979 170.662 170.243 170.723 170.539 170.723C170.836 170.723 171.1 170.662 171.33 170.541C171.561 170.42 171.754 170.242 171.911 170.008C172.067 169.77 172.186 169.479 172.268 169.135C172.35 168.787 172.391 168.389 172.391 167.939ZM175.282 163.469H178.464C179.116 163.469 179.677 163.566 180.145 163.762C180.618 163.957 180.981 164.246 181.235 164.629C181.489 165.012 181.616 165.482 181.616 166.041C181.616 166.498 181.538 166.891 181.382 167.219C181.229 167.543 181.012 167.814 180.731 168.033C180.454 168.248 180.128 168.42 179.753 168.549L179.196 168.842H176.43L176.419 167.471H178.475C178.784 167.471 179.04 167.416 179.243 167.307C179.446 167.197 179.598 167.045 179.7 166.85C179.805 166.654 179.858 166.428 179.858 166.17C179.858 165.896 179.807 165.66 179.706 165.461C179.604 165.262 179.45 165.109 179.243 165.004C179.036 164.898 178.776 164.846 178.464 164.846H177.04V172H175.282V163.469ZM180.052 172L178.106 168.197L179.964 168.186L181.932 171.918V172H180.052ZM185.439 172H183.581L183.593 170.629H185.439C185.9 170.629 186.288 170.525 186.605 170.318C186.921 170.107 187.159 169.801 187.32 169.398C187.484 168.996 187.566 168.51 187.566 167.939V167.523C187.566 167.086 187.519 166.701 187.425 166.369C187.335 166.037 187.2 165.758 187.021 165.531C186.841 165.305 186.62 165.135 186.359 165.021C186.097 164.904 185.796 164.846 185.456 164.846H183.546V163.469H185.456C186.027 163.469 186.548 163.566 187.021 163.762C187.497 163.953 187.909 164.229 188.257 164.588C188.605 164.947 188.872 165.377 189.06 165.877C189.251 166.373 189.347 166.926 189.347 167.535V167.939C189.347 168.545 189.251 169.098 189.06 169.598C188.872 170.098 188.605 170.527 188.257 170.887C187.913 171.242 187.501 171.518 187.021 171.713C186.544 171.904 186.017 172 185.439 172ZM184.577 163.469V172H182.82V163.469H184.577ZM196.199 170.629V172H191.658V170.629H196.199ZM192.232 163.469V172H190.474V163.469H192.232ZM195.607 166.943V168.279H191.658V166.943H195.607ZM196.193 163.469V164.846H191.658V163.469H196.193ZM197.074 163.469H200.256C200.908 163.469 201.469 163.566 201.937 163.762C202.41 163.957 202.773 164.246 203.027 164.629C203.281 165.012 203.408 165.482 203.408 166.041C203.408 166.498 203.33 166.891 203.174 167.219C203.021 167.543 202.805 167.814 202.523 168.033C202.246 168.248 201.92 168.42 201.545 168.549L200.988 168.842H198.223L198.211 167.471H200.268C200.576 167.471 200.832 167.416 201.035 167.307C201.238 167.197 201.391 167.045 201.492 166.85C201.598 166.654 201.65 166.428 201.65 166.17C201.65 165.896 201.6 165.66 201.498 165.461C201.396 165.262 201.242 165.109 201.035 165.004C200.828 164.898 200.568 164.846 200.256 164.846H198.832V172H197.074V163.469ZM201.844 172L199.898 168.197L201.756 168.186L203.725 171.918V172H201.844Z" fill="white"/>
<rect x="212" y="156" width="24" height="24" rx="12" fill="#FF3E79"/>
<path fill-rule="evenodd" clip-rule="evenodd" d="M224.8 168L221.792 165.229C221.364 164.835 221.361 164.161 221.785 163.764L221.92 163.637C222.303 163.278 222.899 163.276 223.284 163.633L227.938 167.943C227.971 167.974 227.971 168.026 227.938 168.057L223.347 172.309C222.926 172.698 222.276 172.696 221.858 172.304C221.394 171.87 221.398 171.134 221.865 170.704L224.8 168Z" fill="white"/>
<path d="M18.6729 170.401H19.5752C20.0173 170.401 20.3818 170.328 20.6689 170.183C20.9606 170.032 21.1771 169.829 21.3184 169.574C21.4642 169.314 21.5371 169.023 21.5371 168.699C21.5371 168.316 21.4733 167.995 21.3457 167.735C21.2181 167.476 21.0267 167.28 20.7715 167.147C20.5163 167.015 20.1927 166.949 19.8008 166.949C19.4453 166.949 19.1309 167.02 18.8574 167.161C18.5885 167.298 18.3766 167.494 18.2217 167.749C18.0713 168.004 17.9961 168.305 17.9961 168.651H16.7314C16.7314 168.146 16.859 167.685 17.1143 167.271C17.3695 166.856 17.7272 166.525 18.1875 166.279C18.6523 166.033 19.1901 165.91 19.8008 165.91C20.4023 165.91 20.9287 166.017 21.3799 166.231C21.8311 166.441 22.182 166.756 22.4326 167.175C22.6833 167.59 22.8086 168.107 22.8086 168.727C22.8086 168.977 22.7493 169.246 22.6309 169.533C22.5169 169.816 22.3369 170.08 22.0908 170.326C21.8493 170.572 21.5348 170.775 21.1475 170.935C20.7601 171.09 20.2952 171.167 19.7529 171.167H18.6729V170.401ZM18.6729 171.44V170.682H19.7529C20.3864 170.682 20.9105 170.757 21.3252 170.907C21.7399 171.058 22.0658 171.258 22.3027 171.509C22.5443 171.759 22.7129 172.035 22.8086 172.336C22.9089 172.632 22.959 172.928 22.959 173.225C22.959 173.689 22.8792 174.102 22.7197 174.462C22.5648 174.822 22.3438 175.127 22.0566 175.378C21.7741 175.629 21.4414 175.818 21.0586 175.945C20.6758 176.073 20.2588 176.137 19.8076 176.137C19.3747 176.137 18.9668 176.075 18.584 175.952C18.2057 175.829 17.8708 175.651 17.5791 175.419C17.2874 175.182 17.0596 174.893 16.8955 174.551C16.7314 174.204 16.6494 173.81 16.6494 173.368H17.9141C17.9141 173.715 17.9893 174.018 18.1396 174.277C18.2946 174.537 18.5133 174.74 18.7959 174.886C19.083 175.027 19.4202 175.098 19.8076 175.098C20.195 175.098 20.5277 175.032 20.8057 174.899C21.0882 174.763 21.3047 174.558 21.4551 174.284C21.61 174.011 21.6875 173.667 21.6875 173.252C21.6875 172.837 21.6009 172.498 21.4277 172.233C21.2546 171.965 21.0085 171.766 20.6895 171.639C20.375 171.507 20.0036 171.44 19.5752 171.44H18.6729ZM31.1502 170.23V171.748C31.1502 172.564 31.0773 173.252 30.9314 173.812C30.7856 174.373 30.576 174.824 30.3025 175.166C30.0291 175.508 29.6987 175.756 29.3113 175.911C28.9285 176.062 28.4956 176.137 28.0125 176.137C27.6297 176.137 27.2765 176.089 26.9529 175.993C26.6294 175.897 26.3377 175.745 26.0779 175.535C25.8227 175.321 25.604 175.043 25.4217 174.701C25.2394 174.359 25.1004 173.945 25.0047 173.457C24.909 172.969 24.8611 172.4 24.8611 171.748V170.23C24.8611 169.415 24.934 168.731 25.0799 168.18C25.2303 167.628 25.4422 167.186 25.7156 166.854C25.9891 166.516 26.3172 166.275 26.7 166.129C27.0874 165.983 27.5203 165.91 27.9988 165.91C28.3862 165.91 28.7417 165.958 29.0652 166.054C29.3934 166.145 29.685 166.293 29.9402 166.498C30.1954 166.699 30.4119 166.967 30.5896 167.305C30.7719 167.637 30.9109 168.045 31.0066 168.528C31.1023 169.011 31.1502 169.579 31.1502 170.23ZM29.8787 171.953V170.019C29.8787 169.572 29.8514 169.18 29.7967 168.843C29.7465 168.501 29.6714 168.209 29.5711 167.968C29.4708 167.726 29.3432 167.53 29.1883 167.38C29.0379 167.229 28.8624 167.12 28.6619 167.052C28.466 166.979 28.2449 166.942 27.9988 166.942C27.698 166.942 27.4314 166.999 27.199 167.113C26.9666 167.223 26.7706 167.398 26.6111 167.64C26.4562 167.881 26.3377 168.198 26.2557 168.59C26.1736 168.982 26.1326 169.458 26.1326 170.019V171.953C26.1326 172.4 26.1577 172.794 26.2078 173.136C26.2625 173.478 26.3423 173.774 26.4471 174.024C26.5519 174.271 26.6795 174.473 26.8299 174.633C26.9803 174.792 27.1535 174.911 27.3494 174.988C27.5499 175.061 27.771 175.098 28.0125 175.098C28.3224 175.098 28.5936 175.038 28.826 174.92C29.0584 174.801 29.2521 174.617 29.407 174.366C29.5665 174.111 29.685 173.785 29.7625 173.389C29.84 172.988 29.8787 172.509 29.8787 171.953ZM35.7457 171.249V172.288H32.4098V171.249H35.7457ZM41.2025 165.992V176H39.9379V167.571L37.3881 168.501V167.359L41.0043 165.992H41.2025ZM51.6428 174.961V176H45.1281V175.091L48.3889 171.461C48.7899 171.014 49.0998 170.636 49.3186 170.326C49.5419 170.012 49.6968 169.731 49.7834 169.485C49.8745 169.235 49.9201 168.979 49.9201 168.72C49.9201 168.392 49.8518 168.095 49.715 167.831C49.5829 167.562 49.3869 167.348 49.1271 167.188C48.8674 167.029 48.5529 166.949 48.1838 166.949C47.7417 166.949 47.3726 167.036 47.0764 167.209C46.7847 167.378 46.5659 167.615 46.4201 167.92C46.2743 168.225 46.2014 168.576 46.2014 168.973H44.9367C44.9367 168.412 45.0598 167.899 45.3059 167.435C45.552 166.97 45.9165 166.601 46.3996 166.327C46.8827 166.049 47.4774 165.91 48.1838 165.91C48.8127 165.91 49.3505 166.022 49.7971 166.245C50.2437 166.464 50.5855 166.774 50.8225 167.175C51.064 167.571 51.1848 168.036 51.1848 168.569C51.1848 168.861 51.1346 169.157 51.0344 169.458C50.9387 169.754 50.8042 170.05 50.6311 170.347C50.4624 170.643 50.2642 170.935 50.0363 171.222C49.813 171.509 49.5738 171.791 49.3186 172.069L46.6525 174.961H51.6428ZM59.4443 170.23V171.748C59.4443 172.564 59.3714 173.252 59.2256 173.812C59.0798 174.373 58.8701 174.824 58.5967 175.166C58.3232 175.508 57.9928 175.756 57.6055 175.911C57.2227 176.062 56.7897 176.137 56.3066 176.137C55.9238 176.137 55.5706 176.089 55.2471 175.993C54.9235 175.897 54.6318 175.745 54.3721 175.535C54.1169 175.321 53.8981 175.043 53.7158 174.701C53.5335 174.359 53.3945 173.945 53.2988 173.457C53.2031 172.969 53.1553 172.4 53.1553 171.748V170.23C53.1553 169.415 53.2282 168.731 53.374 168.18C53.5244 167.628 53.7363 167.186 54.0098 166.854C54.2832 166.516 54.6113 166.275 54.9941 166.129C55.3815 165.983 55.8145 165.91 56.293 165.91C56.6803 165.91 57.0358 165.958 57.3594 166.054C57.6875 166.145 57.9792 166.293 58.2344 166.498C58.4896 166.699 58.7061 166.967 58.8838 167.305C59.0661 167.637 59.2051 168.045 59.3008 168.528C59.3965 169.011 59.4443 169.579 59.4443 170.23ZM58.1729 171.953V170.019C58.1729 169.572 58.1455 169.18 58.0908 168.843C58.0407 168.501 57.9655 168.209 57.8652 167.968C57.765 167.726 57.6374 167.53 57.4824 167.38C57.332 167.229 57.1566 167.12 56.9561 167.052C56.7601 166.979 56.5391 166.942 56.293 166.942C55.9922 166.942 55.7256 166.999 55.4932 167.113C55.2607 167.223 55.0648 167.398 54.9053 167.64C54.7503 167.881 54.6318 168.198 54.5498 168.59C54.4678 168.982 54.4268 169.458 54.4268 170.019V171.953C54.4268 172.4 54.4518 172.794 54.502 173.136C54.5566 173.478 54.6364 173.774 54.7412 174.024C54.846 174.271 54.9736 174.473 55.124 174.633C55.2744 174.792 55.4476 174.911 55.6436 174.988C55.8441 175.061 56.0651 175.098 56.3066 175.098C56.6165 175.098 56.8877 175.038 57.1201 174.92C57.3525 174.801 57.5462 174.617 57.7012 174.366C57.8607 174.111 57.9792 173.785 58.0566 173.389C58.1341 172.988 58.1729 172.509 58.1729 171.953ZM66.3385 170.073V176H65.067V168.604H66.2701L66.3385 170.073ZM66.0787 172.021L65.4908 172.001C65.4954 171.495 65.5615 171.028 65.6891 170.6C65.8167 170.167 66.0058 169.791 66.2564 169.472C66.5071 169.153 66.8193 168.907 67.193 168.733C67.5667 168.556 67.9996 168.467 68.4918 168.467C68.8382 168.467 69.1572 168.517 69.4488 168.617C69.7405 168.713 69.9934 168.866 70.2076 169.075C70.4218 169.285 70.5882 169.554 70.7066 169.882C70.8251 170.21 70.8844 170.606 70.8844 171.071V176H69.6197V171.133C69.6197 170.745 69.5536 170.436 69.4215 170.203C69.2939 169.971 69.1116 169.802 68.8746 169.697C68.6376 169.588 68.3596 169.533 68.0406 169.533C67.6669 169.533 67.3548 169.599 67.1041 169.731C66.8535 169.864 66.6529 170.046 66.5025 170.278C66.3521 170.511 66.2428 170.777 66.1744 171.078C66.1106 171.374 66.0787 171.689 66.0787 172.021ZM70.8707 171.324L70.023 171.584C70.0276 171.178 70.0937 170.789 70.2213 170.415C70.3535 170.041 70.5426 169.709 70.7887 169.417C71.0393 169.125 71.3469 168.895 71.7115 168.727C72.0761 168.553 72.4931 168.467 72.9625 168.467C73.359 168.467 73.7099 168.519 74.0152 168.624C74.3251 168.729 74.5849 168.891 74.7945 169.109C75.0087 169.324 75.1705 169.599 75.2799 169.937C75.3893 170.274 75.4439 170.675 75.4439 171.14V176H74.1725V171.126C74.1725 170.711 74.1064 170.39 73.9742 170.162C73.8466 169.93 73.6643 169.768 73.4273 169.677C73.1949 169.581 72.9169 169.533 72.5934 169.533C72.3154 169.533 72.0693 169.581 71.8551 169.677C71.6409 169.772 71.4609 169.905 71.315 170.073C71.1692 170.237 71.0576 170.426 70.9801 170.641C70.9072 170.855 70.8707 171.083 70.8707 171.324ZM78.932 168.604V176H77.6605V168.604H78.932ZM77.5648 166.642C77.5648 166.437 77.6264 166.263 77.7494 166.122C77.877 165.981 78.0639 165.91 78.31 165.91C78.5515 165.91 78.7361 165.981 78.8637 166.122C78.9958 166.263 79.0619 166.437 79.0619 166.642C79.0619 166.838 78.9958 167.006 78.8637 167.147C78.7361 167.284 78.5515 167.353 78.31 167.353C78.0639 167.353 77.877 167.284 77.7494 167.147C77.6264 167.006 77.5648 166.838 77.5648 166.642ZM82.427 170.183V176H81.1623V168.604H82.3586L82.427 170.183ZM82.1262 172.021L81.5998 172.001C81.6044 171.495 81.6796 171.028 81.8254 170.6C81.9712 170.167 82.1763 169.791 82.4406 169.472C82.705 169.153 83.0194 168.907 83.384 168.733C83.7531 168.556 84.161 168.467 84.6076 168.467C84.9722 168.467 85.3003 168.517 85.592 168.617C85.8837 168.713 86.132 168.868 86.3371 169.082C86.5467 169.296 86.7063 169.574 86.8156 169.916C86.925 170.253 86.9797 170.666 86.9797 171.153V176H85.7082V171.14C85.7082 170.752 85.6512 170.442 85.5373 170.21C85.4234 169.973 85.257 169.802 85.0383 169.697C84.8195 169.588 84.5507 169.533 84.2316 169.533C83.9172 169.533 83.6301 169.599 83.3703 169.731C83.1151 169.864 82.8941 170.046 82.7072 170.278C82.5249 170.511 82.3814 170.777 82.2766 171.078C82.1763 171.374 82.1262 171.689 82.1262 172.021Z" fill="#1B1C21"/>
<path opacity="0.721842" d="M21.1064 145.047V155H19.4043V145.047H21.1064ZM24.2305 145.047V146.414H16.3076V145.047H24.2305ZM27.1426 147.604V155H25.4883V147.604H27.1426ZM25.3789 145.662C25.3789 145.411 25.4609 145.204 25.625 145.04C25.7936 144.871 26.026 144.787 26.3223 144.787C26.6139 144.787 26.8441 144.871 27.0127 145.04C27.1813 145.204 27.2656 145.411 27.2656 145.662C27.2656 145.908 27.1813 146.113 27.0127 146.277C26.8441 146.441 26.6139 146.523 26.3223 146.523C26.026 146.523 25.7936 146.441 25.625 146.277C25.4609 146.113 25.3789 145.908 25.3789 145.662ZM30.5947 149.107V155H28.9473V147.604H30.499L30.5947 149.107ZM30.3281 151.028L29.7676 151.021C29.7676 150.511 29.8314 150.039 29.959 149.606C30.0866 149.174 30.2734 148.798 30.5195 148.479C30.7656 148.155 31.071 147.907 31.4355 147.733C31.8047 147.556 32.2308 147.467 32.7139 147.467C33.0511 147.467 33.3587 147.517 33.6367 147.617C33.9193 147.713 34.1631 147.866 34.3682 148.075C34.5778 148.285 34.7373 148.554 34.8467 148.882C34.9606 149.21 35.0176 149.606 35.0176 150.071V155H33.3701V150.215C33.3701 149.855 33.3154 149.572 33.2061 149.367C33.1012 149.162 32.9486 149.016 32.748 148.93C32.5521 148.839 32.3174 148.793 32.0439 148.793C31.734 148.793 31.4697 148.852 31.251 148.971C31.0368 149.089 30.8613 149.251 30.7246 149.456C30.5879 149.661 30.4876 149.898 30.4238 150.167C30.36 150.436 30.3281 150.723 30.3281 151.028ZM34.915 150.591L34.1426 150.762C34.1426 150.315 34.2041 149.894 34.3271 149.497C34.4548 149.096 34.6393 148.745 34.8809 148.444C35.127 148.139 35.43 147.9 35.79 147.727C36.1501 147.553 36.5625 147.467 37.0273 147.467C37.4056 147.467 37.7428 147.519 38.0391 147.624C38.3398 147.724 38.5951 147.884 38.8047 148.103C39.0143 148.321 39.1738 148.606 39.2832 148.957C39.3926 149.303 39.4473 149.723 39.4473 150.215V155H37.793V150.208C37.793 149.834 37.7383 149.545 37.6289 149.34C37.5241 149.135 37.3737 148.993 37.1777 148.916C36.9818 148.834 36.7471 148.793 36.4736 148.793C36.2184 148.793 35.9928 148.841 35.7969 148.937C35.6055 149.028 35.4437 149.158 35.3115 149.326C35.1794 149.49 35.0791 149.679 35.0107 149.894C34.9469 150.108 34.915 150.34 34.915 150.591ZM44.4033 155.137C43.8564 155.137 43.362 155.048 42.9199 154.87C42.4824 154.688 42.1087 154.435 41.7988 154.111C41.4935 153.788 41.2588 153.407 41.0947 152.97C40.9307 152.532 40.8486 152.061 40.8486 151.555V151.281C40.8486 150.702 40.9329 150.178 41.1016 149.709C41.2702 149.24 41.5049 148.839 41.8057 148.506C42.1064 148.169 42.4619 147.911 42.8721 147.733C43.2822 147.556 43.7266 147.467 44.2051 147.467C44.7337 147.467 45.1963 147.556 45.5928 147.733C45.9893 147.911 46.3174 148.162 46.5771 148.485C46.8415 148.804 47.0374 149.185 47.165 149.627C47.2972 150.069 47.3633 150.557 47.3633 151.09V151.794H41.6484V150.611H45.7363V150.481C45.7272 150.185 45.668 149.907 45.5586 149.647C45.4538 149.388 45.292 149.178 45.0732 149.019C44.8545 148.859 44.5628 148.779 44.1982 148.779C43.9248 148.779 43.681 148.839 43.4668 148.957C43.2572 149.071 43.0817 149.237 42.9404 149.456C42.7992 149.675 42.6898 149.939 42.6123 150.249C42.5394 150.554 42.5029 150.898 42.5029 151.281V151.555C42.5029 151.878 42.5462 152.179 42.6328 152.457C42.724 152.73 42.8561 152.97 43.0293 153.175C43.2025 153.38 43.4121 153.542 43.6582 153.66C43.9043 153.774 44.1846 153.831 44.499 153.831C44.8955 153.831 45.2487 153.751 45.5586 153.592C45.8685 153.432 46.1374 153.207 46.3652 152.915L47.2334 153.756C47.0739 153.988 46.8665 154.212 46.6113 154.426C46.3561 154.635 46.0439 154.806 45.6748 154.938C45.3102 155.071 44.8864 155.137 44.4033 155.137Z" fill="#7E7E82"/>
<path opacity="0.721842" d="M17.0117 19.0469H20.5322C21.2887 19.0469 21.9336 19.1608 22.4668 19.3887C23 19.6165 23.4079 19.9538 23.6904 20.4004C23.9775 20.8424 24.1211 21.3893 24.1211 22.041C24.1211 22.5378 24.0299 22.9753 23.8477 23.3535C23.6654 23.7318 23.4079 24.0508 23.0752 24.3105C22.7425 24.5658 22.346 24.764 21.8857 24.9053L21.3662 25.1582H18.2012L18.1875 23.7979H20.5596C20.9697 23.7979 21.3115 23.7249 21.585 23.5791C21.8584 23.4333 22.0635 23.235 22.2002 22.9844C22.3415 22.7292 22.4121 22.4421 22.4121 22.123C22.4121 21.7767 22.3438 21.4759 22.207 21.2207C22.0749 20.9609 21.8698 20.7627 21.5918 20.626C21.3138 20.4847 20.9606 20.4141 20.5322 20.4141H18.7275V29H17.0117V19.0469ZM22.6924 29L20.3545 24.5293L22.1523 24.5225L24.5244 28.9111V29H22.6924ZM28.9268 29.1367C28.3799 29.1367 27.8854 29.0479 27.4434 28.8701C27.0059 28.6878 26.6322 28.4349 26.3223 28.1113C26.0169 27.7878 25.7822 27.4072 25.6182 26.9697C25.4541 26.5322 25.3721 26.0605 25.3721 25.5547V25.2812C25.3721 24.7025 25.4564 24.1784 25.625 23.709C25.7936 23.2396 26.0283 22.8385 26.3291 22.5059C26.6299 22.1686 26.9854 21.9111 27.3955 21.7334C27.8057 21.5557 28.25 21.4668 28.7285 21.4668C29.2572 21.4668 29.7197 21.5557 30.1162 21.7334C30.5127 21.9111 30.8408 22.1618 31.1006 22.4854C31.3649 22.8044 31.5609 23.1849 31.6885 23.627C31.8206 24.069 31.8867 24.5566 31.8867 25.0898V25.7939H26.1719V24.6113H30.2598V24.4814C30.2507 24.1852 30.1914 23.9072 30.082 23.6475C29.9772 23.3877 29.8154 23.1781 29.5967 23.0186C29.3779 22.859 29.0863 22.7793 28.7217 22.7793C28.4482 22.7793 28.2044 22.8385 27.9902 22.957C27.7806 23.071 27.6051 23.2373 27.4639 23.4561C27.3226 23.6748 27.2132 23.9391 27.1357 24.249C27.0628 24.5544 27.0264 24.8984 27.0264 25.2812V25.5547C27.0264 25.8783 27.0697 26.179 27.1562 26.457C27.2474 26.7305 27.3796 26.9697 27.5527 27.1748C27.7259 27.3799 27.9355 27.5417 28.1816 27.6602C28.4277 27.7741 28.708 27.8311 29.0225 27.8311C29.4189 27.8311 29.7721 27.7513 30.082 27.5918C30.3919 27.4323 30.6608 27.2067 30.8887 26.915L31.7568 27.7559C31.5973 27.9883 31.39 28.2116 31.1348 28.4258C30.8796 28.6354 30.5674 28.8063 30.1982 28.9385C29.8337 29.0706 29.4098 29.1367 28.9268 29.1367ZM34.8262 23.0254V31.8438H33.1787V21.6035H34.6963L34.8262 23.0254ZM39.6455 25.2334V25.377C39.6455 25.9147 39.5817 26.4137 39.4541 26.874C39.3311 27.3298 39.1465 27.7285 38.9004 28.0703C38.6589 28.4076 38.3604 28.6696 38.0049 28.8564C37.6494 29.0433 37.2393 29.1367 36.7744 29.1367C36.3141 29.1367 35.9108 29.0524 35.5645 28.8838C35.2227 28.7106 34.9333 28.4668 34.6963 28.1523C34.4593 27.8379 34.2679 27.4688 34.1221 27.0449C33.9808 26.6165 33.8805 26.1471 33.8213 25.6367V25.083C33.8805 24.5407 33.9808 24.0485 34.1221 23.6064C34.2679 23.1644 34.4593 22.7839 34.6963 22.4648C34.9333 22.1458 35.2227 21.8997 35.5645 21.7266C35.9062 21.5534 36.305 21.4668 36.7607 21.4668C37.2256 21.4668 37.638 21.5579 37.998 21.7402C38.3581 21.918 38.6611 22.1732 38.9072 22.5059C39.1533 22.834 39.3379 23.2305 39.4609 23.6953C39.584 24.1556 39.6455 24.6683 39.6455 25.2334ZM37.998 25.377V25.2334C37.998 24.8916 37.9661 24.5749 37.9023 24.2832C37.8385 23.987 37.7383 23.7272 37.6016 23.5039C37.4648 23.2806 37.2894 23.1074 37.0752 22.9844C36.8656 22.8568 36.6126 22.793 36.3164 22.793C36.0247 22.793 35.7741 22.8431 35.5645 22.9434C35.3548 23.0391 35.1794 23.1735 35.0381 23.3467C34.8968 23.5199 34.7874 23.7227 34.71 23.9551C34.6325 24.1829 34.5778 24.4313 34.5459 24.7002V26.0264C34.6006 26.3545 34.694 26.6553 34.8262 26.9287C34.9583 27.2021 35.1452 27.4209 35.3867 27.585C35.6328 27.7445 35.9473 27.8242 36.3301 27.8242C36.6263 27.8242 36.8792 27.7604 37.0889 27.6328C37.2985 27.5052 37.4694 27.3298 37.6016 27.1064C37.7383 26.8786 37.8385 26.6165 37.9023 26.3203C37.9661 26.0241 37.998 25.7096 37.998 25.377ZM45.2168 27.5166V23.9893C45.2168 23.7249 45.1689 23.4971 45.0732 23.3057C44.9775 23.1143 44.8317 22.9661 44.6357 22.8613C44.4443 22.7565 44.2028 22.7041 43.9111 22.7041C43.6423 22.7041 43.4098 22.7497 43.2139 22.8408C43.0179 22.932 42.8652 23.055 42.7559 23.21C42.6465 23.3649 42.5918 23.5404 42.5918 23.7363H40.9512C40.9512 23.4447 41.0218 23.1621 41.1631 22.8887C41.3044 22.6152 41.5094 22.3714 41.7783 22.1572C42.0472 21.943 42.3685 21.7744 42.7422 21.6514C43.1159 21.5283 43.5352 21.4668 44 21.4668C44.556 21.4668 45.0482 21.5602 45.4766 21.7471C45.9095 21.9339 46.249 22.2165 46.4951 22.5947C46.7458 22.9684 46.8711 23.4378 46.8711 24.0029V27.291C46.8711 27.6283 46.8939 27.9313 46.9395 28.2002C46.9896 28.4645 47.0602 28.6947 47.1514 28.8906V29H45.4629C45.3854 28.8223 45.3239 28.5967 45.2783 28.3232C45.2373 28.0452 45.2168 27.7764 45.2168 27.5166ZM45.4561 24.502L45.4697 25.5205H44.2871C43.9818 25.5205 43.7129 25.5501 43.4805 25.6094C43.248 25.6641 43.0544 25.7461 42.8994 25.8555C42.7445 25.9648 42.6283 26.097 42.5508 26.252C42.4733 26.4069 42.4346 26.5824 42.4346 26.7783C42.4346 26.9743 42.4801 27.1543 42.5713 27.3184C42.6624 27.4779 42.7946 27.6032 42.9678 27.6943C43.1455 27.7855 43.3597 27.8311 43.6104 27.8311C43.9476 27.8311 44.2415 27.7627 44.4922 27.626C44.7474 27.4847 44.9479 27.3138 45.0938 27.1133C45.2396 26.9082 45.3171 26.7145 45.3262 26.5322L45.8594 27.2637C45.8047 27.4505 45.7113 27.651 45.5791 27.8652C45.4469 28.0794 45.2738 28.2845 45.0596 28.4805C44.8499 28.6719 44.597 28.8291 44.3008 28.9521C44.0091 29.0752 43.6719 29.1367 43.2891 29.1367C42.806 29.1367 42.3753 29.041 41.9971 28.8496C41.6188 28.6536 41.3226 28.3916 41.1084 28.0635C40.8942 27.7308 40.7871 27.3548 40.7871 26.9355C40.7871 26.5436 40.86 26.1973 41.0059 25.8965C41.1562 25.5911 41.375 25.3359 41.6621 25.1309C41.9538 24.9258 42.3092 24.7708 42.7285 24.666C43.1478 24.5566 43.6263 24.502 44.1641 24.502H45.4561ZM50.3574 21.6035V29H48.7031V21.6035H50.3574ZM48.5938 19.6621C48.5938 19.4115 48.6758 19.2041 48.8398 19.04C49.0085 18.8714 49.2409 18.7871 49.5371 18.7871C49.8288 18.7871 50.0589 18.8714 50.2275 19.04C50.3962 19.2041 50.4805 19.4115 50.4805 19.6621C50.4805 19.9082 50.3962 20.1133 50.2275 20.2773C50.0589 20.4414 49.8288 20.5234 49.5371 20.5234C49.2409 20.5234 49.0085 20.4414 48.8398 20.2773C48.6758 20.1133 48.5938 19.9082 48.5938 19.6621ZM53.8164 23.0117V29H52.1689V21.6035H53.7412L53.8164 23.0117ZM56.0791 21.5557L56.0654 23.0869C55.9652 23.0687 55.8558 23.055 55.7373 23.0459C55.6234 23.0368 55.5094 23.0322 55.3955 23.0322C55.113 23.0322 54.8646 23.0732 54.6504 23.1553C54.4362 23.2327 54.2562 23.3467 54.1104 23.4971C53.9691 23.6429 53.8597 23.8206 53.7822 24.0303C53.7048 24.2399 53.6592 24.4746 53.6455 24.7344L53.2695 24.7617C53.2695 24.2969 53.3151 23.8662 53.4062 23.4697C53.4974 23.0732 53.6341 22.7246 53.8164 22.4238C54.0033 22.123 54.2357 21.8883 54.5137 21.7197C54.7962 21.5511 55.1221 21.4668 55.4912 21.4668C55.5915 21.4668 55.6986 21.4759 55.8125 21.4941C55.931 21.5124 56.0199 21.5329 56.0791 21.5557ZM65.998 26.4365C65.998 26.2314 65.9661 26.0492 65.9023 25.8896C65.8431 25.7301 65.736 25.5843 65.5811 25.4521C65.4261 25.32 65.2074 25.1924 64.9248 25.0693C64.6468 24.9417 64.2913 24.8118 63.8584 24.6797C63.3844 24.5339 62.9469 24.3721 62.5459 24.1943C62.1494 24.012 61.8031 23.8024 61.5068 23.5654C61.2106 23.3239 60.9805 23.0482 60.8164 22.7383C60.6523 22.4238 60.5703 22.0615 60.5703 21.6514C60.5703 21.2458 60.6546 20.8766 60.8232 20.5439C60.9964 20.2113 61.2402 19.9242 61.5547 19.6826C61.8737 19.4365 62.2497 19.2474 62.6826 19.1152C63.1156 18.9785 63.5941 18.9102 64.1182 18.9102C64.8564 18.9102 65.4922 19.0469 66.0254 19.3203C66.5632 19.5938 66.9756 19.9606 67.2627 20.4209C67.5544 20.8812 67.7002 21.3893 67.7002 21.9453H65.998C65.998 21.6172 65.9274 21.3278 65.7861 21.0771C65.6494 20.8219 65.4398 20.6214 65.1572 20.4756C64.8792 20.3298 64.526 20.2568 64.0977 20.2568C63.6921 20.2568 63.3548 20.3184 63.0859 20.4414C62.8171 20.5645 62.6165 20.7308 62.4844 20.9404C62.3522 21.1501 62.2861 21.387 62.2861 21.6514C62.2861 21.8382 62.3294 22.0091 62.416 22.1641C62.5026 22.3145 62.6348 22.4557 62.8125 22.5879C62.9902 22.7155 63.2135 22.8363 63.4824 22.9502C63.7513 23.0641 64.068 23.1735 64.4326 23.2783C64.984 23.4424 65.4648 23.6247 65.875 23.8252C66.2852 24.0212 66.627 24.2445 66.9004 24.4951C67.1738 24.7458 67.3789 25.0306 67.5156 25.3496C67.6523 25.6641 67.7207 26.0218 67.7207 26.4229C67.7207 26.8421 67.6364 27.2204 67.4678 27.5576C67.2992 27.8903 67.0576 28.1751 66.7432 28.4121C66.4333 28.6445 66.0596 28.8245 65.6221 28.9521C65.1891 29.0752 64.7061 29.1367 64.1729 29.1367C63.6943 29.1367 63.2227 29.0729 62.7578 28.9453C62.2975 28.8177 61.8783 28.624 61.5 28.3643C61.1217 28.0999 60.821 27.7718 60.5977 27.3799C60.3743 26.9834 60.2627 26.5208 60.2627 25.9922H61.9785C61.9785 26.3158 62.0332 26.5915 62.1426 26.8193C62.2565 27.0472 62.4137 27.234 62.6143 27.3799C62.8148 27.5212 63.0472 27.626 63.3115 27.6943C63.5804 27.7627 63.8675 27.7969 64.1729 27.7969C64.5739 27.7969 64.9089 27.7399 65.1777 27.626C65.4512 27.512 65.6562 27.3525 65.793 27.1475C65.9297 26.9424 65.998 26.7054 65.998 26.4365ZM72.335 29.1367C71.7881 29.1367 71.2936 29.0479 70.8516 28.8701C70.4141 28.6878 70.0404 28.4349 69.7305 28.1113C69.4251 27.7878 69.1904 27.4072 69.0264 26.9697C68.8623 26.5322 68.7803 26.0605 68.7803 25.5547V25.2812C68.7803 24.7025 68.8646 24.1784 69.0332 23.709C69.2018 23.2396 69.4365 22.8385 69.7373 22.5059C70.0381 22.1686 70.3936 21.9111 70.8037 21.7334C71.2139 21.5557 71.6582 21.4668 72.1367 21.4668C72.6654 21.4668 73.1279 21.5557 73.5244 21.7334C73.9209 21.9111 74.249 22.1618 74.5088 22.4854C74.7731 22.8044 74.9691 23.1849 75.0967 23.627C75.2288 24.069 75.2949 24.5566 75.2949 25.0898V25.7939H69.5801V24.6113H73.668V24.4814C73.6589 24.1852 73.5996 23.9072 73.4902 23.6475C73.3854 23.3877 73.2236 23.1781 73.0049 23.0186C72.7861 22.859 72.4945 22.7793 72.1299 22.7793C71.8564 22.7793 71.6126 22.8385 71.3984 22.957C71.1888 23.071 71.0133 23.2373 70.8721 23.4561C70.7308 23.6748 70.6214 23.9391 70.5439 24.249C70.471 24.5544 70.4346 24.8984 70.4346 25.2812V25.5547C70.4346 25.8783 70.4779 26.179 70.5645 26.457C70.6556 26.7305 70.7878 26.9697 70.9609 27.1748C71.1341 27.3799 71.3438 27.5417 71.5898 27.6602C71.8359 27.7741 72.1162 27.8311 72.4307 27.8311C72.8271 27.8311 73.1803 27.7513 73.4902 27.5918C73.8001 27.4323 74.069 27.2067 74.2969 26.915L75.165 27.7559C75.0055 27.9883 74.7982 28.2116 74.543 28.4258C74.2878 28.6354 73.9756 28.8063 73.6064 28.9385C73.2419 29.0706 72.818 29.1367 72.335 29.1367ZM78.2344 23.0117V29H76.5869V21.6035H78.1592L78.2344 23.0117ZM80.4971 21.5557L80.4834 23.0869C80.3831 23.0687 80.2738 23.055 80.1553 23.0459C80.0413 23.0368 79.9274 23.0322 79.8135 23.0322C79.5309 23.0322 79.2826 23.0732 79.0684 23.1553C78.8542 23.2327 78.6742 23.3467 78.5283 23.4971C78.387 23.6429 78.2777 23.8206 78.2002 24.0303C78.1227 24.2399 78.0771 24.4746 78.0635 24.7344L77.6875 24.7617C77.6875 24.2969 77.7331 23.8662 77.8242 23.4697C77.9154 23.0732 78.0521 22.7246 78.2344 22.4238C78.4212 22.123 78.6536 21.8883 78.9316 21.7197C79.2142 21.5511 79.54 21.4668 79.9092 21.4668C80.0094 21.4668 80.1165 21.4759 80.2305 21.4941C80.349 21.5124 80.4378 21.5329 80.4971 21.5557ZM84.0586 27.6943L85.8701 21.6035H87.5791L85.0088 29H83.9424L84.0586 27.6943ZM82.6709 21.6035L84.5166 27.7217L84.6055 29H83.5391L80.9551 21.6035H82.6709ZM90.3613 21.6035V29H88.707V21.6035H90.3613ZM88.5977 19.6621C88.5977 19.4115 88.6797 19.2041 88.8438 19.04C89.0124 18.8714 89.2448 18.7871 89.541 18.7871C89.8327 18.7871 90.0628 18.8714 90.2314 19.04C90.4001 19.2041 90.4844 19.4115 90.4844 19.6621C90.4844 19.9082 90.4001 20.1133 90.2314 20.2773C90.0628 20.4414 89.8327 20.5234 89.541 20.5234C89.2448 20.5234 89.0124 20.4414 88.8438 20.2773C88.6797 20.1133 88.5977 19.9082 88.5977 19.6621ZM95.1875 27.8242C95.4564 27.8242 95.6979 27.7718 95.9121 27.667C96.1309 27.5576 96.3063 27.4072 96.4385 27.2158C96.5752 27.0244 96.6504 26.8034 96.6641 26.5527H98.2158C98.2067 27.0312 98.0654 27.4665 97.792 27.8584C97.5186 28.2503 97.1562 28.5625 96.7051 28.7949C96.2539 29.0228 95.7549 29.1367 95.208 29.1367C94.6429 29.1367 94.1507 29.041 93.7314 28.8496C93.3122 28.6536 92.9635 28.3848 92.6855 28.043C92.4076 27.7012 92.1979 27.307 92.0566 26.8604C91.9199 26.4137 91.8516 25.9352 91.8516 25.4248V25.1855C91.8516 24.6751 91.9199 24.1966 92.0566 23.75C92.1979 23.2988 92.4076 22.9023 92.6855 22.5605C92.9635 22.2188 93.3122 21.9521 93.7314 21.7607C94.1507 21.5648 94.6406 21.4668 95.2012 21.4668C95.7936 21.4668 96.3132 21.5853 96.7598 21.8223C97.2064 22.0547 97.5573 22.3805 97.8125 22.7998C98.0723 23.2145 98.2067 23.6976 98.2158 24.249H96.6641C96.6504 23.9756 96.582 23.7295 96.459 23.5107C96.3405 23.2874 96.1719 23.1097 95.9531 22.9775C95.7389 22.8454 95.4814 22.7793 95.1807 22.7793C94.848 22.7793 94.5723 22.8477 94.3535 22.9844C94.1348 23.1165 93.9639 23.2988 93.8408 23.5312C93.7178 23.7591 93.6289 24.0166 93.5742 24.3037C93.5241 24.5863 93.499 24.8802 93.499 25.1855V25.4248C93.499 25.7301 93.5241 26.0264 93.5742 26.3135C93.6243 26.6006 93.7109 26.8581 93.834 27.0859C93.9616 27.3092 94.1348 27.4893 94.3535 27.626C94.5723 27.7581 94.8503 27.8242 95.1875 27.8242ZM102.741 29.1367C102.194 29.1367 101.7 29.0479 101.258 28.8701C100.82 28.6878 100.447 28.4349 100.137 28.1113C99.8314 27.7878 99.5967 27.4072 99.4326 26.9697C99.2686 26.5322 99.1865 26.0605 99.1865 25.5547V25.2812C99.1865 24.7025 99.2708 24.1784 99.4395 23.709C99.6081 23.2396 99.8428 22.8385 100.144 22.5059C100.444 22.1686 100.8 21.9111 101.21 21.7334C101.62 21.5557 102.064 21.4668 102.543 21.4668C103.072 21.4668 103.534 21.5557 103.931 21.7334C104.327 21.9111 104.655 22.1618 104.915 22.4854C105.179 22.8044 105.375 23.1849 105.503 23.627C105.635 24.069 105.701 24.5566 105.701 25.0898V25.7939H99.9863V24.6113H104.074V24.4814C104.065 24.1852 104.006 23.9072 103.896 23.6475C103.792 23.3877 103.63 23.1781 103.411 23.0186C103.192 22.859 102.901 22.7793 102.536 22.7793C102.263 22.7793 102.019 22.8385 101.805 22.957C101.595 23.071 101.42 23.2373 101.278 23.4561C101.137 23.6748 101.028 23.9391 100.95 24.249C100.877 24.5544 100.841 24.8984 100.841 25.2812V25.5547C100.841 25.8783 100.884 26.179 100.971 26.457C101.062 26.7305 101.194 26.9697 101.367 27.1748C101.54 27.3799 101.75 27.5417 101.996 27.6602C102.242 27.7741 102.522 27.8311 102.837 27.8311C103.233 27.8311 103.587 27.7513 103.896 27.5918C104.206 27.4323 104.475 27.2067 104.703 26.915L105.571 27.7559C105.412 27.9883 105.204 28.2116 104.949 28.4258C104.694 28.6354 104.382 28.8063 104.013 28.9385C103.648 29.0706 103.224 29.1367 102.741 29.1367ZM111.136 26.9971C111.136 26.833 111.095 26.6849 111.013 26.5527C110.931 26.416 110.773 26.293 110.541 26.1836C110.313 26.0742 109.976 25.974 109.529 25.8828C109.137 25.7962 108.777 25.6937 108.449 25.5752C108.126 25.4521 107.848 25.304 107.615 25.1309C107.383 24.9577 107.203 24.7526 107.075 24.5156C106.948 24.2786 106.884 24.0052 106.884 23.6953C106.884 23.3945 106.95 23.1097 107.082 22.8408C107.214 22.5719 107.403 22.335 107.649 22.1299C107.896 21.9248 108.194 21.763 108.545 21.6445C108.9 21.526 109.297 21.4668 109.734 21.4668C110.354 21.4668 110.885 21.5716 111.327 21.7812C111.774 21.9863 112.116 22.2666 112.353 22.6221C112.59 22.973 112.708 23.3695 112.708 23.8115H111.061C111.061 23.6156 111.01 23.4333 110.91 23.2646C110.814 23.0915 110.669 22.9525 110.473 22.8477C110.277 22.7383 110.031 22.6836 109.734 22.6836C109.452 22.6836 109.217 22.7292 109.03 22.8203C108.848 22.9069 108.711 23.0208 108.62 23.1621C108.534 23.3034 108.49 23.4583 108.49 23.627C108.49 23.75 108.513 23.8617 108.559 23.9619C108.609 24.0576 108.691 24.1465 108.805 24.2285C108.919 24.306 109.074 24.3789 109.27 24.4473C109.47 24.5156 109.721 24.5817 110.021 24.6455C110.587 24.764 111.072 24.9167 111.478 25.1035C111.888 25.2858 112.202 25.5228 112.421 25.8145C112.64 26.1016 112.749 26.4661 112.749 26.9082C112.749 27.2363 112.678 27.5371 112.537 27.8105C112.4 28.0794 112.2 28.3141 111.936 28.5146C111.671 28.7106 111.354 28.8633 110.985 28.9727C110.621 29.082 110.211 29.1367 109.755 29.1367C109.085 29.1367 108.518 29.0182 108.053 28.7812C107.588 28.5397 107.235 28.2321 106.993 27.8584C106.756 27.4801 106.638 27.0882 106.638 26.6826H108.23C108.249 26.988 108.333 27.2318 108.483 27.4141C108.638 27.5918 108.83 27.7217 109.058 27.8037C109.29 27.8812 109.529 27.9199 109.775 27.9199C110.072 27.9199 110.32 27.8812 110.521 27.8037C110.721 27.7217 110.874 27.6123 110.979 27.4756C111.083 27.3343 111.136 27.1748 111.136 26.9971Z" fill="#7E7E82"/>
<path d="M20.833 40.0469V50H19.5342V40.0469H20.833ZM24.0322 40.0469V41.127H16.3418V40.0469H24.0322ZM27.9031 50.1367C27.3882 50.1367 26.921 50.0501 26.5018 49.877C26.087 49.6992 25.7293 49.4508 25.4285 49.1318C25.1323 48.8128 24.9044 48.4346 24.7449 47.9971C24.5854 47.5596 24.5057 47.0811 24.5057 46.5615V46.2744C24.5057 45.6729 24.5945 45.1374 24.7723 44.668C24.95 44.194 25.1915 43.793 25.4969 43.4648C25.8022 43.1367 26.1486 42.8883 26.5359 42.7197C26.9233 42.5511 27.3243 42.4668 27.7391 42.4668C28.2677 42.4668 28.7234 42.5579 29.1062 42.7402C29.4936 42.9225 29.8104 43.1777 30.0564 43.5059C30.3025 43.8294 30.4848 44.2122 30.6033 44.6543C30.7218 45.0918 30.7811 45.5703 30.7811 46.0898V46.6572H25.2576V45.625H29.5164V45.5293C29.4982 45.2012 29.4298 44.8822 29.3113 44.5723C29.1974 44.2624 29.0151 44.0072 28.7645 43.8066C28.5138 43.6061 28.172 43.5059 27.7391 43.5059C27.452 43.5059 27.1876 43.5674 26.9461 43.6904C26.7046 43.8089 26.4972 43.9867 26.324 44.2236C26.1508 44.4606 26.0164 44.75 25.9207 45.0918C25.825 45.4336 25.7771 45.8278 25.7771 46.2744V46.5615C25.7771 46.9124 25.825 47.2428 25.9207 47.5527C26.021 47.8581 26.1645 48.127 26.3514 48.3594C26.5428 48.5918 26.7729 48.7741 27.0418 48.9062C27.3152 49.0384 27.6251 49.1045 27.9715 49.1045C28.4181 49.1045 28.7964 49.0133 29.1062 48.8311C29.4161 48.6488 29.6873 48.4049 29.9197 48.0996L30.6854 48.708C30.5258 48.9495 30.323 49.1797 30.077 49.3984C29.8309 49.6172 29.5278 49.7949 29.1678 49.9316C28.8123 50.0684 28.3908 50.1367 27.9031 50.1367ZM36.7643 48.0381C36.7643 47.8558 36.7232 47.6872 36.6412 47.5322C36.5637 47.3727 36.402 47.2292 36.1559 47.1016C35.9143 46.9694 35.5497 46.8555 35.0621 46.7598C34.652 46.6732 34.2805 46.5706 33.9479 46.4521C33.6197 46.3337 33.3395 46.1901 33.107 46.0215C32.8792 45.8529 32.7037 45.6546 32.5807 45.4268C32.4576 45.1989 32.3961 44.9323 32.3961 44.627C32.3961 44.3353 32.4599 44.0596 32.5875 43.7998C32.7197 43.54 32.9042 43.3099 33.1412 43.1094C33.3827 42.9089 33.6721 42.7516 34.0094 42.6377C34.3466 42.5238 34.7226 42.4668 35.1373 42.4668C35.7298 42.4668 36.2356 42.5716 36.6549 42.7812C37.0742 42.9909 37.3954 43.2712 37.6187 43.6221C37.8421 43.9684 37.9537 44.3535 37.9537 44.7773H36.6891C36.6891 44.5723 36.6275 44.374 36.5045 44.1826C36.386 43.9867 36.2105 43.8249 35.9781 43.6973C35.7503 43.5697 35.47 43.5059 35.1373 43.5059C34.7864 43.5059 34.5016 43.5605 34.2828 43.6699C34.0686 43.7747 33.9114 43.9092 33.8111 44.0732C33.7154 44.2373 33.6676 44.4105 33.6676 44.5928C33.6676 44.7295 33.6904 44.8525 33.7359 44.9619C33.7861 45.0667 33.8727 45.1647 33.9957 45.2559C34.1187 45.3424 34.2919 45.4245 34.5152 45.502C34.7385 45.5794 35.0234 45.6569 35.3697 45.7344C35.9758 45.8711 36.4749 46.0352 36.8668 46.2266C37.2587 46.418 37.5504 46.6527 37.7418 46.9307C37.9332 47.2087 38.0289 47.5459 38.0289 47.9424C38.0289 48.266 37.9605 48.5622 37.8238 48.8311C37.6917 49.0999 37.498 49.3324 37.2428 49.5283C36.9921 49.7197 36.6913 49.8701 36.3404 49.9795C35.9941 50.0843 35.6044 50.1367 35.1715 50.1367C34.5198 50.1367 33.9684 50.0205 33.5172 49.7881C33.066 49.5557 32.7242 49.2549 32.4918 48.8857C32.2594 48.5166 32.1432 48.127 32.1432 47.7168H33.4146C33.4329 48.0632 33.5331 48.3389 33.7154 48.5439C33.8977 48.7445 34.121 48.888 34.3854 48.9746C34.6497 49.0566 34.9117 49.0977 35.1715 49.0977C35.5178 49.0977 35.8072 49.0521 36.0396 48.9609C36.2766 48.8698 36.4566 48.7445 36.5797 48.585C36.7027 48.4255 36.7643 48.2432 36.7643 48.0381ZM42.9867 42.6035V43.5742H38.9877V42.6035H42.9867ZM40.3412 40.8057H41.6059V48.168C41.6059 48.4186 41.6446 48.6077 41.7221 48.7354C41.7995 48.863 41.8998 48.9473 42.0229 48.9883C42.1459 49.0293 42.2781 49.0498 42.4193 49.0498C42.5242 49.0498 42.6335 49.0407 42.7475 49.0225C42.866 48.9997 42.9548 48.9814 43.0141 48.9678L43.0209 50C42.9206 50.0319 42.7885 50.0615 42.6244 50.0889C42.4649 50.1208 42.2712 50.1367 42.0434 50.1367C41.7335 50.1367 41.4486 50.0752 41.1889 49.9521C40.9291 49.8291 40.7217 49.624 40.5668 49.3369C40.4164 49.0452 40.3412 48.6533 40.3412 48.1611V40.8057ZM46.0441 42.6035V50H44.7727V42.6035H46.0441ZM44.677 40.6416C44.677 40.4365 44.7385 40.2633 44.8615 40.1221C44.9891 39.9808 45.176 39.9102 45.4221 39.9102C45.6636 39.9102 45.8482 39.9808 45.9758 40.1221C46.1079 40.2633 46.174 40.4365 46.174 40.6416C46.174 40.8376 46.1079 41.0062 45.9758 41.1475C45.8482 41.2842 45.6636 41.3525 45.4221 41.3525C45.176 41.3525 44.9891 41.2842 44.8615 41.1475C44.7385 41.0062 44.677 40.8376 44.677 40.6416ZM49.5391 44.1826V50H48.2744V42.6035H49.4707L49.5391 44.1826ZM49.2383 46.0215L48.7119 46.001C48.7165 45.4951 48.7917 45.028 48.9375 44.5996C49.0833 44.1667 49.2884 43.7907 49.5527 43.4717C49.8171 43.1527 50.1315 42.9066 50.4961 42.7334C50.8652 42.5557 51.2731 42.4668 51.7197 42.4668C52.0843 42.4668 52.4124 42.5169 52.7041 42.6172C52.9958 42.7129 53.2441 42.8678 53.4492 43.082C53.6589 43.2962 53.8184 43.5742 53.9277 43.916C54.0371 44.2533 54.0918 44.6657 54.0918 45.1533V50H52.8203V45.1396C52.8203 44.7523 52.7633 44.4424 52.6494 44.21C52.5355 43.973 52.3691 43.8021 52.1504 43.6973C51.9316 43.5879 51.6628 43.5332 51.3438 43.5332C51.0293 43.5332 50.7422 43.5993 50.4824 43.7314C50.2272 43.8636 50.0062 44.0459 49.8193 44.2783C49.637 44.5107 49.4935 44.7773 49.3887 45.0781C49.2884 45.3743 49.2383 45.6888 49.2383 46.0215ZM61.0047 42.6035H62.1531V49.8428C62.1531 50.4945 62.021 51.0505 61.7566 51.5107C61.4923 51.971 61.1232 52.3197 60.6492 52.5566C60.1798 52.7982 59.6375 52.9189 59.0223 52.9189C58.7671 52.9189 58.4663 52.8779 58.1199 52.7959C57.7781 52.7184 57.4409 52.584 57.1082 52.3926C56.7801 52.2057 56.5044 51.9528 56.2811 51.6338L56.9441 50.8818C57.254 51.2555 57.5776 51.5153 57.9148 51.6611C58.2566 51.807 58.5939 51.8799 58.9266 51.8799C59.3276 51.8799 59.674 51.8047 59.9656 51.6543C60.2573 51.5039 60.4829 51.2806 60.6424 50.9844C60.8064 50.6927 60.8885 50.3327 60.8885 49.9043V44.2305L61.0047 42.6035ZM55.9119 46.3838V46.2402C55.9119 45.6751 55.978 45.1624 56.1102 44.7021C56.2469 44.2373 56.4406 43.8385 56.6912 43.5059C56.9464 43.1732 57.254 42.918 57.6141 42.7402C57.9741 42.5579 58.3797 42.4668 58.8309 42.4668C59.2957 42.4668 59.7013 42.5488 60.0477 42.7129C60.3986 42.8724 60.6948 43.1071 60.9363 43.417C61.1824 43.7223 61.3761 44.0915 61.5174 44.5244C61.6587 44.9574 61.7566 45.4473 61.8113 45.9941V46.623C61.7612 47.1654 61.6632 47.653 61.5174 48.0859C61.3761 48.5189 61.1824 48.888 60.9363 49.1934C60.6948 49.4987 60.3986 49.7334 60.0477 49.8975C59.6967 50.057 59.2866 50.1367 58.8172 50.1367C58.3751 50.1367 57.9741 50.0433 57.6141 49.8564C57.2586 49.6696 56.9533 49.4076 56.698 49.0703C56.4428 48.7331 56.2469 48.3366 56.1102 47.8809C55.978 47.4206 55.9119 46.9215 55.9119 46.3838ZM57.1766 46.2402V46.3838C57.1766 46.7529 57.213 47.0993 57.2859 47.4229C57.3634 47.7464 57.4796 48.0312 57.6346 48.2773C57.7941 48.5234 57.9969 48.7171 58.243 48.8584C58.4891 48.9951 58.783 49.0635 59.1248 49.0635C59.5441 49.0635 59.8904 48.9746 60.1639 48.7969C60.4373 48.6191 60.6538 48.3844 60.8133 48.0928C60.9773 47.8011 61.1049 47.4844 61.1961 47.1426V45.4951C61.146 45.2445 61.0685 45.0029 60.9637 44.7705C60.8634 44.5335 60.7313 44.3239 60.5672 44.1416C60.4077 43.9548 60.2094 43.8066 59.9725 43.6973C59.7355 43.5879 59.4575 43.5332 59.1385 43.5332C58.7921 43.5332 58.4936 43.6061 58.243 43.752C57.9969 43.8932 57.7941 44.0892 57.6346 44.3398C57.4796 44.5859 57.3634 44.873 57.2859 45.2012C57.213 45.5247 57.1766 45.8711 57.1766 46.2402ZM69.8197 48.6875L71.7201 42.6035H72.5541L72.39 43.8135L70.4555 50H69.642L69.8197 48.6875ZM68.5414 42.6035L70.1615 48.7559L70.2777 50H69.4232L67.2768 42.6035H68.5414ZM74.3725 48.708L75.9174 42.6035H77.1752L75.0287 50H74.1811L74.3725 48.708ZM72.7387 42.6035L74.598 48.585L74.81 50H74.0033L72.0141 43.7998L71.85 42.6035H72.7387ZM80.048 42.6035V50H78.7766V42.6035H80.048ZM78.6809 40.6416C78.6809 40.4365 78.7424 40.2633 78.8654 40.1221C78.993 39.9808 79.1799 39.9102 79.426 39.9102C79.6675 39.9102 79.8521 39.9808 79.9797 40.1221C80.1118 40.2633 80.1779 40.4365 80.1779 40.6416C80.1779 40.8376 80.1118 41.0062 79.9797 41.1475C79.8521 41.2842 79.6675 41.3525 79.426 41.3525C79.1799 41.3525 78.993 41.2842 78.8654 41.1475C78.7424 41.0062 78.6809 40.8376 78.6809 40.6416ZM85.375 42.6035V43.5742H81.376V42.6035H85.375ZM82.7295 40.8057H83.9941V48.168C83.9941 48.4186 84.0329 48.6077 84.1104 48.7354C84.1878 48.863 84.2881 48.9473 84.4111 48.9883C84.5342 49.0293 84.6663 49.0498 84.8076 49.0498C84.9124 49.0498 85.0218 49.0407 85.1357 49.0225C85.2542 48.9997 85.3431 48.9814 85.4023 48.9678L85.4092 50C85.3089 50.0319 85.1768 50.0615 85.0127 50.0889C84.8532 50.1208 84.6595 50.1367 84.4316 50.1367C84.1217 50.1367 83.8369 50.0752 83.5771 49.9521C83.3174 49.8291 83.11 49.624 82.9551 49.3369C82.8047 49.0452 82.7295 48.6533 82.7295 48.1611V40.8057ZM88.323 39.5V50H87.0584V39.5H88.323ZM88.0223 46.0215L87.4959 46.001C87.5005 45.4951 87.5756 45.028 87.7215 44.5996C87.8673 44.1667 88.0724 43.7907 88.3367 43.4717C88.601 43.1527 88.9155 42.9066 89.2801 42.7334C89.6492 42.5557 90.0571 42.4668 90.5037 42.4668C90.8683 42.4668 91.1964 42.5169 91.4881 42.6172C91.7797 42.7129 92.0281 42.8678 92.2332 43.082C92.4428 43.2962 92.6023 43.5742 92.7117 43.916C92.8211 44.2533 92.8758 44.6657 92.8758 45.1533V50H91.6043V45.1396C91.6043 44.7523 91.5473 44.4424 91.4334 44.21C91.3195 43.973 91.1531 43.8021 90.9344 43.6973C90.7156 43.5879 90.4467 43.5332 90.1277 43.5332C89.8133 43.5332 89.5262 43.5993 89.2664 43.7314C89.0112 43.8636 88.7902 44.0459 88.6033 44.2783C88.421 44.5107 88.2775 44.7773 88.1727 45.0781C88.0724 45.3743 88.0223 45.6888 88.0223 46.0215ZM103.003 48.7354V44.9277C103.003 44.6361 102.944 44.3831 102.826 44.1689C102.712 43.9502 102.538 43.7816 102.306 43.6631C102.074 43.5446 101.787 43.4854 101.445 43.4854C101.126 43.4854 100.845 43.54 100.604 43.6494C100.367 43.7588 100.18 43.9023 100.043 44.0801C99.9112 44.2578 99.8451 44.4492 99.8451 44.6543H98.5805C98.5805 44.39 98.6488 44.1279 98.7855 43.8682C98.9223 43.6084 99.1182 43.3737 99.3734 43.1641C99.6332 42.9499 99.9431 42.7812 100.303 42.6582C100.668 42.5306 101.073 42.4668 101.52 42.4668C102.058 42.4668 102.532 42.5579 102.942 42.7402C103.357 42.9225 103.68 43.1982 103.912 43.5674C104.149 43.932 104.268 44.39 104.268 44.9414V48.3867C104.268 48.6328 104.288 48.8949 104.329 49.1729C104.375 49.4508 104.441 49.6901 104.528 49.8906V50H103.208C103.145 49.8542 103.094 49.6605 103.058 49.4189C103.022 49.1729 103.003 48.945 103.003 48.7354ZM103.222 45.5156L103.236 46.4043H101.957C101.597 46.4043 101.276 46.4339 100.994 46.4932C100.711 46.5479 100.474 46.6322 100.283 46.7461C100.091 46.86 99.9454 47.0036 99.8451 47.1768C99.7449 47.3454 99.6947 47.5436 99.6947 47.7715C99.6947 48.0039 99.7471 48.2158 99.852 48.4072C99.9568 48.5986 100.114 48.7513 100.324 48.8652C100.538 48.9746 100.8 49.0293 101.11 49.0293C101.497 49.0293 101.839 48.9473 102.135 48.7832C102.431 48.6191 102.666 48.4186 102.839 48.1816C103.017 47.9447 103.113 47.7145 103.126 47.4912L103.666 48.0996C103.635 48.291 103.548 48.5029 103.407 48.7354C103.265 48.9678 103.076 49.1911 102.839 49.4053C102.607 49.6149 102.329 49.7904 102.005 49.9316C101.686 50.0684 101.326 50.1367 100.925 50.1367C100.424 50.1367 99.9841 50.0387 99.6059 49.8428C99.2322 49.6468 98.9405 49.3848 98.7309 49.0566C98.5258 48.724 98.4232 48.3525 98.4232 47.9424C98.4232 47.5459 98.5007 47.1973 98.6557 46.8965C98.8106 46.5911 99.0339 46.3382 99.3256 46.1377C99.6173 45.9326 99.9682 45.7777 100.378 45.6729C100.788 45.568 101.246 45.5156 101.752 45.5156H103.222ZM113.227 42.6035V43.5742H109.228V42.6035H113.227ZM110.581 40.8057H111.846V48.168C111.846 48.4186 111.884 48.6077 111.962 48.7354C112.039 48.863 112.14 48.9473 112.263 48.9883C112.386 49.0293 112.518 49.0498 112.659 49.0498C112.764 49.0498 112.873 49.0407 112.987 49.0225C113.106 48.9997 113.195 48.9814 113.254 48.9678L113.261 50C113.16 50.0319 113.028 50.0615 112.864 50.0889C112.705 50.1208 112.511 50.1367 112.283 50.1367C111.973 50.1367 111.688 50.0752 111.429 49.9521C111.169 49.8291 110.962 49.624 110.807 49.3369C110.656 49.0452 110.581 48.6533 110.581 48.1611V40.8057ZM117.979 50.1367C117.464 50.1367 116.997 50.0501 116.578 49.877C116.163 49.6992 115.805 49.4508 115.505 49.1318C115.208 48.8128 114.981 48.4346 114.821 47.9971C114.662 47.5596 114.582 47.0811 114.582 46.5615V46.2744C114.582 45.6729 114.671 45.1374 114.848 44.668C115.026 44.194 115.268 43.793 115.573 43.4648C115.878 43.1367 116.225 42.8883 116.612 42.7197C116.999 42.5511 117.401 42.4668 117.815 42.4668C118.344 42.4668 118.8 42.5579 119.182 42.7402C119.57 42.9225 119.887 43.1777 120.133 43.5059C120.379 43.8294 120.561 44.2122 120.679 44.6543C120.798 45.0918 120.857 45.5703 120.857 46.0898V46.6572H115.334V45.625H119.593V45.5293C119.574 45.2012 119.506 44.8822 119.387 44.5723C119.274 44.2624 119.091 44.0072 118.841 43.8066C118.59 43.6061 118.248 43.5059 117.815 43.5059C117.528 43.5059 117.264 43.5674 117.022 43.6904C116.781 43.8089 116.573 43.9867 116.4 44.2236C116.227 44.4606 116.093 44.75 115.997 45.0918C115.901 45.4336 115.853 45.8278 115.853 46.2744V46.5615C115.853 46.9124 115.901 47.2428 115.997 47.5527C116.097 47.8581 116.241 48.127 116.428 48.3594C116.619 48.5918 116.849 48.7741 117.118 48.9062C117.391 49.0384 117.701 49.1045 118.048 49.1045C118.494 49.1045 118.873 49.0133 119.182 48.8311C119.492 48.6488 119.763 48.4049 119.996 48.0996L120.762 48.708C120.602 48.9495 120.399 49.1797 120.153 49.3984C119.907 49.6172 119.604 49.7949 119.244 49.9316C118.888 50.0684 118.467 50.1367 117.979 50.1367ZM125.494 49.0977C125.795 49.0977 126.073 49.0361 126.328 48.9131C126.583 48.79 126.793 48.6214 126.957 48.4072C127.121 48.1885 127.214 47.9401 127.237 47.6621H128.44C128.417 48.0996 128.269 48.5075 127.996 48.8857C127.727 49.2594 127.374 49.5625 126.936 49.7949C126.499 50.0228 126.018 50.1367 125.494 50.1367C124.938 50.1367 124.452 50.0387 124.038 49.8428C123.628 49.6468 123.286 49.3779 123.012 49.0361C122.743 48.6943 122.541 48.3024 122.404 47.8604C122.272 47.4137 122.206 46.9421 122.206 46.4453V46.1582C122.206 45.6615 122.272 45.1921 122.404 44.75C122.541 44.3034 122.743 43.9092 123.012 43.5674C123.286 43.2256 123.628 42.9567 124.038 42.7607C124.452 42.5648 124.938 42.4668 125.494 42.4668C126.073 42.4668 126.578 42.5853 127.011 42.8223C127.444 43.0547 127.784 43.3737 128.03 43.7793C128.281 44.1803 128.417 44.6361 128.44 45.1465H127.237C127.214 44.8411 127.128 44.5654 126.977 44.3193C126.831 44.0732 126.631 43.8773 126.376 43.7314C126.125 43.5811 125.831 43.5059 125.494 43.5059C125.106 43.5059 124.781 43.5833 124.516 43.7383C124.256 43.8887 124.049 44.0938 123.894 44.3535C123.744 44.6087 123.634 44.8936 123.566 45.208C123.502 45.5179 123.47 45.8346 123.47 46.1582V46.4453C123.47 46.7689 123.502 47.0879 123.566 47.4023C123.63 47.7168 123.737 48.0016 123.887 48.2568C124.042 48.512 124.25 48.7171 124.509 48.8721C124.774 49.0225 125.102 49.0977 125.494 49.0977ZM131.327 39.5V50H130.062V39.5H131.327ZM131.026 46.0215L130.499 46.001C130.504 45.4951 130.579 45.028 130.725 44.5996C130.871 44.1667 131.076 43.7907 131.34 43.4717C131.605 43.1527 131.919 42.9066 132.284 42.7334C132.653 42.5557 133.061 42.4668 133.507 42.4668C133.872 42.4668 134.2 42.5169 134.492 42.6172C134.783 42.7129 135.032 42.8678 135.237 43.082C135.446 43.2962 135.606 43.5742 135.715 43.916C135.825 44.2533 135.879 44.6657 135.879 45.1533V50H134.608V45.1396C134.608 44.7523 134.551 44.4424 134.437 44.21C134.323 43.973 134.157 43.8021 133.938 43.6973C133.719 43.5879 133.45 43.5332 133.131 43.5332C132.817 43.5332 132.53 43.5993 132.27 43.7314C132.015 43.8636 131.794 44.0459 131.607 44.2783C131.425 44.5107 131.281 44.7773 131.176 45.0781C131.076 45.3743 131.026 45.6888 131.026 46.0215ZM139.238 44.1826V50H137.973V42.6035H139.169L139.238 44.1826ZM138.937 46.0215L138.41 46.001C138.415 45.4951 138.49 45.028 138.636 44.5996C138.782 44.1667 138.987 43.7907 139.251 43.4717C139.515 43.1527 139.83 42.9066 140.195 42.7334C140.564 42.5557 140.972 42.4668 141.418 42.4668C141.783 42.4668 142.111 42.5169 142.403 42.6172C142.694 42.7129 142.943 42.8678 143.148 43.082C143.357 43.2962 143.517 43.5742 143.626 43.916C143.736 44.2533 143.79 44.6657 143.79 45.1533V50H142.519V45.1396C142.519 44.7523 142.462 44.4424 142.348 44.21C142.234 43.973 142.068 43.8021 141.849 43.6973C141.63 43.5879 141.361 43.5332 141.042 43.5332C140.728 43.5332 140.441 43.5993 140.181 43.7314C139.926 43.8636 139.705 44.0459 139.518 44.2783C139.335 44.5107 139.192 44.7773 139.087 45.0781C138.987 45.3743 138.937 45.6888 138.937 46.0215ZM147.285 42.6035V50H146.014V42.6035H147.285ZM145.918 40.6416C145.918 40.4365 145.979 40.2633 146.103 40.1221C146.23 39.9808 146.417 39.9102 146.663 39.9102C146.905 39.9102 147.089 39.9808 147.217 40.1221C147.349 40.2633 147.415 40.4365 147.415 40.6416C147.415 40.8376 147.349 41.0062 147.217 41.1475C147.089 41.2842 146.905 41.3525 146.663 41.3525C146.417 41.3525 146.23 41.2842 146.103 41.1475C145.979 41.0062 145.918 40.8376 145.918 40.6416ZM152.475 49.0977C152.776 49.0977 153.054 49.0361 153.309 48.9131C153.565 48.79 153.774 48.6214 153.938 48.4072C154.102 48.1885 154.196 47.9401 154.219 47.6621H155.422C155.399 48.0996 155.251 48.5075 154.977 48.8857C154.708 49.2594 154.355 49.5625 153.918 49.7949C153.48 50.0228 152.999 50.1367 152.475 50.1367C151.919 50.1367 151.434 50.0387 151.019 49.8428C150.609 49.6468 150.267 49.3779 149.994 49.0361C149.725 48.6943 149.522 48.3024 149.386 47.8604C149.253 47.4137 149.187 46.9421 149.187 46.4453V46.1582C149.187 45.6615 149.253 45.1921 149.386 44.75C149.522 44.3034 149.725 43.9092 149.994 43.5674C150.267 43.2256 150.609 42.9567 151.019 42.7607C151.434 42.5648 151.919 42.4668 152.475 42.4668C153.054 42.4668 153.56 42.5853 153.993 42.8223C154.426 43.0547 154.765 43.3737 155.012 43.7793C155.262 44.1803 155.399 44.6361 155.422 45.1465H154.219C154.196 44.8411 154.109 44.5654 153.959 44.3193C153.813 44.0732 153.612 43.8773 153.357 43.7314C153.107 43.5811 152.813 43.5059 152.475 43.5059C152.088 43.5059 151.762 43.5833 151.498 43.7383C151.238 43.8887 151.031 44.0938 150.876 44.3535C150.725 44.6087 150.616 44.8936 150.548 45.208C150.484 45.5179 150.452 45.8346 150.452 46.1582V46.4453C150.452 46.7689 150.484 47.0879 150.548 47.4023C150.611 47.7168 150.719 48.0016 150.869 48.2568C151.024 48.512 151.231 48.7171 151.491 48.8721C151.755 49.0225 152.083 49.0977 152.475 49.0977ZM161.405 48.7354V44.9277C161.405 44.6361 161.346 44.3831 161.227 44.1689C161.113 43.9502 160.94 43.7816 160.708 43.6631C160.475 43.5446 160.188 43.4854 159.846 43.4854C159.527 43.4854 159.247 43.54 159.005 43.6494C158.768 43.7588 158.582 43.9023 158.445 44.0801C158.313 44.2578 158.247 44.4492 158.247 44.6543H156.982C156.982 44.39 157.05 44.1279 157.187 43.8682C157.324 43.6084 157.52 43.3737 157.775 43.1641C158.035 42.9499 158.345 42.7812 158.705 42.6582C159.069 42.5306 159.475 42.4668 159.921 42.4668C160.459 42.4668 160.933 42.5579 161.343 42.7402C161.758 42.9225 162.082 43.1982 162.314 43.5674C162.551 43.932 162.67 44.39 162.67 44.9414V48.3867C162.67 48.6328 162.69 48.8949 162.731 49.1729C162.777 49.4508 162.843 49.6901 162.929 49.8906V50H161.61C161.546 49.8542 161.496 49.6605 161.46 49.4189C161.423 49.1729 161.405 48.945 161.405 48.7354ZM161.624 45.5156L161.637 46.4043H160.359C159.999 46.4043 159.678 46.4339 159.395 46.4932C159.113 46.5479 158.876 46.6322 158.684 46.7461C158.493 46.86 158.347 47.0036 158.247 47.1768C158.146 47.3454 158.096 47.5436 158.096 47.7715C158.096 48.0039 158.149 48.2158 158.254 48.4072C158.358 48.5986 158.516 48.7513 158.725 48.8652C158.939 48.9746 159.201 49.0293 159.511 49.0293C159.899 49.0293 160.24 48.9473 160.537 48.7832C160.833 48.6191 161.068 48.4186 161.241 48.1816C161.419 47.9447 161.514 47.7145 161.528 47.4912L162.068 48.0996C162.036 48.291 161.949 48.5029 161.808 48.7354C161.667 48.9678 161.478 49.1911 161.241 49.4053C161.008 49.6149 160.73 49.7904 160.407 49.9316C160.088 50.0684 159.728 50.1367 159.327 50.1367C158.825 50.1367 158.386 50.0387 158.007 49.8428C157.634 49.6468 157.342 49.3848 157.132 49.0566C156.927 48.724 156.825 48.3525 156.825 47.9424C156.825 47.5459 156.902 47.1973 157.057 46.8965C157.212 46.5911 157.435 46.3382 157.727 46.1377C158.019 45.9326 158.37 45.7777 158.78 45.6729C159.19 45.568 159.648 45.5156 160.154 45.5156H161.624ZM166.233 39.5V50H164.961V39.5H166.233ZM173.4 43.7656V50H172.136V42.6035H173.366L173.4 43.7656ZM175.711 42.5625L175.704 43.7383C175.599 43.7155 175.499 43.7018 175.403 43.6973C175.312 43.6882 175.207 43.6836 175.089 43.6836C174.797 43.6836 174.54 43.7292 174.316 43.8203C174.093 43.9115 173.904 44.0391 173.749 44.2031C173.594 44.3672 173.471 44.5632 173.38 44.791C173.293 45.0143 173.236 45.2604 173.209 45.5293L172.854 45.7344C172.854 45.2878 172.897 44.8685 172.983 44.4766C173.075 44.0846 173.214 43.7383 173.4 43.4375C173.587 43.1322 173.824 42.8952 174.111 42.7266C174.403 42.5534 174.749 42.4668 175.15 42.4668C175.242 42.4668 175.346 42.4782 175.465 42.501C175.583 42.5192 175.665 42.5397 175.711 42.5625ZM180.012 50.1367C179.498 50.1367 179.03 50.0501 178.611 49.877C178.196 49.6992 177.839 49.4508 177.538 49.1318C177.242 48.8128 177.014 48.4346 176.854 47.9971C176.695 47.5596 176.615 47.0811 176.615 46.5615V46.2744C176.615 45.6729 176.704 45.1374 176.882 44.668C177.059 44.194 177.301 43.793 177.606 43.4648C177.912 43.1367 178.258 42.8883 178.645 42.7197C179.033 42.5511 179.434 42.4668 179.848 42.4668C180.377 42.4668 180.833 42.5579 181.216 42.7402C181.603 42.9225 181.92 43.1777 182.166 43.5059C182.412 43.8294 182.594 44.2122 182.713 44.6543C182.831 45.0918 182.89 45.5703 182.89 46.0898V46.6572H177.367V45.625H181.626V45.5293C181.608 45.2012 181.539 44.8822 181.421 44.5723C181.307 44.2624 181.124 44.0072 180.874 43.8066C180.623 43.6061 180.281 43.5059 179.848 43.5059C179.561 43.5059 179.297 43.5674 179.055 43.6904C178.814 43.8089 178.607 43.9867 178.433 44.2236C178.26 44.4606 178.126 44.75 178.03 45.0918C177.934 45.4336 177.887 45.8278 177.887 46.2744V46.5615C177.887 46.9124 177.934 47.2428 178.03 47.5527C178.13 47.8581 178.274 48.127 178.461 48.3594C178.652 48.5918 178.882 48.7741 179.151 48.9062C179.425 49.0384 179.735 49.1045 180.081 49.1045C180.527 49.1045 180.906 49.0133 181.216 48.8311C181.526 48.6488 181.797 48.4049 182.029 48.0996L182.795 48.708C182.635 48.9495 182.432 49.1797 182.186 49.3984C181.94 49.6172 181.637 49.7949 181.277 49.9316C180.922 50.0684 180.5 50.1367 180.012 50.1367ZM185.832 44.0254V52.8438H184.56V42.6035H185.722L185.832 44.0254ZM190.815 46.2402V46.3838C190.815 46.9215 190.751 47.4206 190.624 47.8809C190.496 48.3366 190.309 48.7331 190.063 49.0703C189.822 49.4076 189.523 49.6696 189.168 49.8564C188.812 50.0433 188.404 50.1367 187.944 50.1367C187.475 50.1367 187.06 50.0592 186.7 49.9043C186.34 49.7493 186.034 49.5238 185.784 49.2275C185.533 48.9313 185.333 48.5758 185.182 48.1611C185.036 47.7464 184.936 47.2793 184.881 46.7598V45.9941C184.936 45.4473 185.039 44.9574 185.189 44.5244C185.339 44.0915 185.538 43.7223 185.784 43.417C186.034 43.1071 186.337 42.8724 186.693 42.7129C187.048 42.5488 187.459 42.4668 187.923 42.4668C188.388 42.4668 188.801 42.5579 189.161 42.7402C189.521 42.918 189.824 43.1732 190.07 43.5059C190.316 43.8385 190.501 44.2373 190.624 44.7021C190.751 45.1624 190.815 45.6751 190.815 46.2402ZM189.544 46.3838V46.2402C189.544 45.8711 189.505 45.5247 189.427 45.2012C189.35 44.873 189.229 44.5859 189.065 44.3398C188.906 44.0892 188.7 43.8932 188.45 43.752C188.199 43.6061 187.901 43.5332 187.554 43.5332C187.235 43.5332 186.957 43.5879 186.72 43.6973C186.488 43.8066 186.29 43.9548 186.126 44.1416C185.962 44.3239 185.827 44.5335 185.722 44.7705C185.622 45.0029 185.547 45.2445 185.497 45.4951V47.2656C185.588 47.5846 185.715 47.8854 185.879 48.168C186.044 48.446 186.262 48.6715 186.536 48.8447C186.809 49.0133 187.153 49.0977 187.568 49.0977C187.91 49.0977 188.204 49.027 188.45 48.8857C188.7 48.7399 188.906 48.5417 189.065 48.291C189.229 48.0404 189.35 47.7533 189.427 47.4297C189.505 47.1016 189.544 46.7529 189.544 46.3838ZM192.293 46.3838V46.2266C192.293 45.6934 192.371 45.1989 192.526 44.7432C192.681 44.2829 192.904 43.8841 193.196 43.5469C193.487 43.2051 193.841 42.9408 194.255 42.7539C194.67 42.5625 195.135 42.4668 195.65 42.4668C196.169 42.4668 196.636 42.5625 197.051 42.7539C197.47 42.9408 197.826 43.2051 198.118 43.5469C198.414 43.8841 198.639 44.2829 198.794 44.7432C198.949 45.1989 199.027 45.6934 199.027 46.2266V46.3838C199.027 46.917 198.949 47.4115 198.794 47.8672C198.639 48.3229 198.414 48.7217 198.118 49.0635C197.826 49.4007 197.473 49.665 197.058 49.8564C196.648 50.0433 196.183 50.1367 195.663 50.1367C195.144 50.1367 194.677 50.0433 194.262 49.8564C193.847 49.665 193.492 49.4007 193.196 49.0635C192.904 48.7217 192.681 48.3229 192.526 47.8672C192.371 47.4115 192.293 46.917 192.293 46.3838ZM193.558 46.2266V46.3838C193.558 46.7529 193.601 47.1016 193.688 47.4297C193.774 47.7533 193.904 48.0404 194.078 48.291C194.255 48.5417 194.476 48.7399 194.741 48.8857C195.005 49.027 195.313 49.0977 195.663 49.0977C196.01 49.0977 196.313 49.027 196.573 48.8857C196.837 48.7399 197.056 48.5417 197.229 48.291C197.402 48.0404 197.532 47.7533 197.619 47.4297C197.71 47.1016 197.755 46.7529 197.755 46.3838V46.2266C197.755 45.862 197.71 45.5179 197.619 45.1943C197.532 44.8662 197.4 44.5768 197.222 44.3262C197.049 44.071 196.83 43.8704 196.566 43.7246C196.306 43.5788 196.001 43.5059 195.65 43.5059C195.303 43.5059 194.998 43.5788 194.734 43.7246C194.474 43.8704 194.255 44.071 194.078 44.3262C193.904 44.5768 193.774 44.8662 193.688 45.1943C193.601 45.5179 193.558 45.862 193.558 46.2266ZM202.077 43.7656V50H200.813V42.6035H202.043L202.077 43.7656ZM204.388 42.5625L204.381 43.7383C204.276 43.7155 204.176 43.7018 204.08 43.6973C203.989 43.6882 203.884 43.6836 203.766 43.6836C203.474 43.6836 203.217 43.7292 202.993 43.8203C202.77 43.9115 202.581 44.0391 202.426 44.2031C202.271 44.3672 202.148 44.5632 202.057 44.791C201.97 45.0143 201.913 45.2604 201.886 45.5293L201.53 45.7344C201.53 45.2878 201.574 44.8685 201.66 44.4766C201.752 44.0846 201.89 43.7383 202.077 43.4375C202.264 43.1322 202.501 42.8952 202.788 42.7266C203.08 42.5534 203.426 42.4668 203.827 42.4668C203.918 42.4668 204.023 42.4782 204.142 42.501C204.26 42.5192 204.342 42.5397 204.388 42.5625ZM209.195 42.6035V43.5742H205.196V42.6035H209.195ZM206.55 40.8057H207.814V48.168C207.814 48.4186 207.853 48.6077 207.931 48.7354C208.008 48.863 208.108 48.9473 208.231 48.9883C208.354 49.0293 208.487 49.0498 208.628 49.0498C208.733 49.0498 208.842 49.0407 208.956 49.0225C209.075 48.9997 209.163 48.9814 209.223 48.9678L209.229 50C209.129 50.0319 208.997 50.0615 208.833 50.0889C208.674 50.1208 208.48 50.1367 208.252 50.1367C207.942 50.1367 207.657 50.0752 207.397 49.9521C207.138 49.8291 206.93 49.624 206.775 49.3369C206.625 49.0452 206.55 48.6533 206.55 48.1611V40.8057ZM18.3379 60.6035V68H17.0664V60.6035H18.3379ZM16.9707 58.6416C16.9707 58.4365 17.0322 58.2633 17.1553 58.1221C17.2829 57.9808 17.4697 57.9102 17.7158 57.9102C17.9574 57.9102 18.1419 57.9808 18.2695 58.1221C18.4017 58.2633 18.4678 58.4365 18.4678 58.6416C18.4678 58.8376 18.4017 59.0062 18.2695 59.1475C18.1419 59.2842 17.9574 59.3525 17.7158 59.3525C17.4697 59.3525 17.2829 59.2842 17.1553 59.1475C17.0322 59.0062 16.9707 58.8376 16.9707 58.6416ZM24.8748 66.0381C24.8748 65.8558 24.8338 65.6872 24.7518 65.5322C24.6743 65.3727 24.5125 65.2292 24.2664 65.1016C24.0249 64.9694 23.6603 64.8555 23.1727 64.7598C22.7625 64.6732 22.3911 64.5706 22.0584 64.4521C21.7303 64.3337 21.45 64.1901 21.2176 64.0215C20.9897 63.8529 20.8143 63.6546 20.6912 63.4268C20.5682 63.1989 20.5066 62.9323 20.5066 62.627C20.5066 62.3353 20.5704 62.0596 20.698 61.7998C20.8302 61.54 21.0148 61.3099 21.2518 61.1094C21.4933 60.9089 21.7827 60.7516 22.1199 60.6377C22.4572 60.5238 22.8331 60.4668 23.2479 60.4668C23.8403 60.4668 24.3462 60.5716 24.7654 60.7812C25.1847 60.9909 25.506 61.2712 25.7293 61.6221C25.9526 61.9684 26.0643 62.3535 26.0643 62.7773H24.7996C24.7996 62.5723 24.7381 62.374 24.615 62.1826C24.4965 61.9867 24.3211 61.8249 24.0887 61.6973C23.8608 61.5697 23.5805 61.5059 23.2479 61.5059C22.8969 61.5059 22.6121 61.5605 22.3934 61.6699C22.1792 61.7747 22.0219 61.9092 21.9217 62.0732C21.826 62.2373 21.7781 62.4105 21.7781 62.5928C21.7781 62.7295 21.8009 62.8525 21.8465 62.9619C21.8966 63.0667 21.9832 63.1647 22.1063 63.2559C22.2293 63.3424 22.4025 63.4245 22.6258 63.502C22.8491 63.5794 23.1339 63.6569 23.4803 63.7344C24.0864 63.8711 24.5854 64.0352 24.9773 64.2266C25.3693 64.418 25.6609 64.6527 25.8523 64.9307C26.0438 65.2087 26.1395 65.5459 26.1395 65.9424C26.1395 66.266 26.0711 66.5622 25.9344 66.8311C25.8022 67.0999 25.6085 67.3324 25.3533 67.5283C25.1027 67.7197 24.8019 67.8701 24.451 67.9795C24.1046 68.0843 23.715 68.1367 23.282 68.1367C22.6303 68.1367 22.0789 68.0205 21.6277 67.7881C21.1766 67.5557 20.8348 67.2549 20.6023 66.8857C20.3699 66.5166 20.2537 66.127 20.2537 65.7168H21.5252C21.5434 66.0632 21.6437 66.3389 21.826 66.5439C22.0083 66.7445 22.2316 66.888 22.4959 66.9746C22.7602 67.0566 23.0223 67.0977 23.282 67.0977C23.6284 67.0977 23.9178 67.0521 24.1502 66.9609C24.3872 66.8698 24.5672 66.7445 24.6902 66.585C24.8133 66.4255 24.8748 66.2432 24.8748 66.0381ZM32.3072 66.0381C32.3072 65.8558 32.2662 65.6872 32.1842 65.5322C32.1067 65.3727 31.9449 65.2292 31.6988 65.1016C31.4573 64.9694 31.0927 64.8555 30.6051 64.7598C30.1949 64.6732 29.8235 64.5706 29.4908 64.4521C29.1627 64.3337 28.8824 64.1901 28.65 64.0215C28.4221 63.8529 28.2467 63.6546 28.1236 63.4268C28.0006 63.1989 27.9391 62.9323 27.9391 62.627C27.9391 62.3353 28.0029 62.0596 28.1305 61.7998C28.2626 61.54 28.4472 61.3099 28.6842 61.1094C28.9257 60.9089 29.2151 60.7516 29.5523 60.6377C29.8896 60.5238 30.2656 60.4668 30.6803 60.4668C31.2727 60.4668 31.7786 60.5716 32.1979 60.7812C32.6171 60.9909 32.9384 61.2712 33.1617 61.6221C33.385 61.9684 33.4967 62.3535 33.4967 62.7773H32.232C32.232 62.5723 32.1705 62.374 32.0475 62.1826C31.929 61.9867 31.7535 61.8249 31.5211 61.6973C31.2932 61.5697 31.013 61.5059 30.6803 61.5059C30.3294 61.5059 30.0445 61.5605 29.8258 61.6699C29.6116 61.7747 29.4544 61.9092 29.3541 62.0732C29.2584 62.2373 29.2105 62.4105 29.2105 62.5928C29.2105 62.7295 29.2333 62.8525 29.2789 62.9619C29.329 63.0667 29.4156 63.1647 29.5387 63.2559C29.6617 63.3424 29.8349 63.4245 30.0582 63.502C30.2815 63.5794 30.5663 63.6569 30.9127 63.7344C31.5188 63.8711 32.0178 64.0352 32.4098 64.2266C32.8017 64.418 33.0934 64.6527 33.2848 64.9307C33.4762 65.2087 33.5719 65.5459 33.5719 65.9424C33.5719 66.266 33.5035 66.5622 33.3668 66.8311C33.2346 67.0999 33.041 67.3324 32.7857 67.5283C32.5351 67.7197 32.2343 67.8701 31.8834 67.9795C31.537 68.0843 31.1474 68.1367 30.7145 68.1367C30.0628 68.1367 29.5113 68.0205 29.0602 67.7881C28.609 67.5557 28.2672 67.2549 28.0348 66.8857C27.8023 66.5166 27.6861 66.127 27.6861 65.7168H28.9576C28.9758 66.0632 29.0761 66.3389 29.2584 66.5439C29.4407 66.7445 29.664 66.888 29.9283 66.9746C30.1926 67.0566 30.4547 67.0977 30.7145 67.0977C31.0608 67.0977 31.3502 67.0521 31.5826 66.9609C31.8196 66.8698 31.9996 66.7445 32.1227 66.585C32.2457 66.4255 32.3072 66.2432 32.3072 66.0381ZM39.9584 66.291V60.6035H41.2299V68H40.0199L39.9584 66.291ZM40.1977 64.7324L40.724 64.7188C40.724 65.2109 40.6716 65.6667 40.5668 66.0859C40.4665 66.5007 40.3025 66.8607 40.0746 67.166C39.8467 67.4714 39.5482 67.7106 39.1791 67.8838C38.81 68.0524 38.3611 68.1367 37.8324 68.1367C37.4724 68.1367 37.142 68.0843 36.8412 67.9795C36.545 67.8747 36.2898 67.7129 36.0756 67.4941C35.8614 67.2754 35.6951 66.9906 35.5766 66.6396C35.4626 66.2887 35.4057 65.8672 35.4057 65.375V60.6035H36.6703V65.3887C36.6703 65.7214 36.7068 65.9971 36.7797 66.2158C36.8572 66.43 36.9597 66.6009 37.0873 66.7285C37.2195 66.8516 37.3653 66.9382 37.5248 66.9883C37.6889 67.0384 37.8575 67.0635 38.0307 67.0635C38.5684 67.0635 38.9945 66.9609 39.309 66.7559C39.6234 66.5462 39.849 66.266 39.9857 65.915C40.127 65.5596 40.1977 65.1654 40.1977 64.7324ZM47.7189 66.7354V62.9277C47.7189 62.6361 47.6597 62.3831 47.5412 62.1689C47.4273 61.9502 47.2541 61.7816 47.0217 61.6631C46.7893 61.5446 46.5021 61.4854 46.1604 61.4854C45.8413 61.4854 45.5611 61.54 45.3195 61.6494C45.0826 61.7588 44.8957 61.9023 44.759 62.0801C44.6268 62.2578 44.5607 62.4492 44.5607 62.6543H43.2961C43.2961 62.39 43.3645 62.1279 43.5012 61.8682C43.6379 61.6084 43.8339 61.3737 44.0891 61.1641C44.3488 60.9499 44.6587 60.7812 45.0187 60.6582C45.3833 60.5306 45.7889 60.4668 46.2355 60.4668C46.7733 60.4668 47.2473 60.5579 47.6574 60.7402C48.0721 60.9225 48.3957 61.1982 48.6281 61.5674C48.8651 61.932 48.9836 62.39 48.9836 62.9414V66.3867C48.9836 66.6328 49.0041 66.8949 49.0451 67.1729C49.0907 67.4508 49.1568 67.6901 49.2434 67.8906V68H47.924C47.8602 67.8542 47.8101 67.6605 47.7736 67.4189C47.7372 67.1729 47.7189 66.945 47.7189 66.7354ZM47.9377 63.5156L47.9514 64.4043H46.673C46.313 64.4043 45.9917 64.4339 45.7092 64.4932C45.4266 64.5479 45.1896 64.6322 44.9982 64.7461C44.8068 64.86 44.661 65.0036 44.5607 65.1768C44.4605 65.3454 44.4104 65.5436 44.4104 65.7715C44.4104 66.0039 44.4628 66.2158 44.5676 66.4072C44.6724 66.5986 44.8296 66.7513 45.0393 66.8652C45.2534 66.9746 45.5155 67.0293 45.8254 67.0293C46.2128 67.0293 46.5546 66.9473 46.8508 66.7832C47.147 66.6191 47.3817 66.4186 47.5549 66.1816C47.7326 65.9447 47.8283 65.7145 47.842 65.4912L48.382 66.0996C48.3501 66.291 48.2635 66.5029 48.1223 66.7354C47.981 66.9678 47.7919 67.1911 47.5549 67.4053C47.3225 67.6149 47.0445 67.7904 46.7209 67.9316C46.4019 68.0684 46.0419 68.1367 45.6408 68.1367C45.1395 68.1367 44.6997 68.0387 44.3215 67.8428C43.9478 67.6468 43.6561 67.3848 43.4465 67.0566C43.2414 66.724 43.1389 66.3525 43.1389 65.9424C43.1389 65.5459 43.2163 65.1973 43.3713 64.8965C43.5262 64.5911 43.7495 64.3382 44.0412 64.1377C44.3329 63.9326 44.6838 63.7777 45.0939 63.6729C45.5041 63.568 45.9621 63.5156 46.468 63.5156H47.9377ZM52.4375 62.1826V68H51.1729V60.6035H52.3691L52.4375 62.1826ZM52.1367 64.0215L51.6104 64.001C51.6149 63.4951 51.6901 63.028 51.8359 62.5996C51.9818 62.1667 52.1868 61.7907 52.4512 61.4717C52.7155 61.1527 53.0299 60.9066 53.3945 60.7334C53.7637 60.5557 54.1715 60.4668 54.6182 60.4668C54.9827 60.4668 55.3109 60.5169 55.6025 60.6172C55.8942 60.7129 56.1426 60.8678 56.3477 61.082C56.5573 61.2962 56.7168 61.5742 56.8262 61.916C56.9355 62.2533 56.9902 62.6657 56.9902 63.1533V68H55.7188V63.1396C55.7188 62.7523 55.6618 62.4424 55.5479 62.21C55.4339 61.973 55.2676 61.8021 55.0488 61.6973C54.8301 61.5879 54.5612 61.5332 54.2422 61.5332C53.9277 61.5332 53.6406 61.5993 53.3809 61.7314C53.1257 61.8636 52.9046 62.0459 52.7178 62.2783C52.5355 62.5107 52.3919 62.7773 52.2871 63.0781C52.1868 63.3743 52.1367 63.6888 52.1367 64.0215ZM62.0711 67.0977C62.3719 67.0977 62.6499 67.0361 62.9051 66.9131C63.1603 66.79 63.3699 66.6214 63.534 66.4072C63.698 66.1885 63.7915 65.9401 63.8143 65.6621H65.0174C64.9946 66.0996 64.8465 66.5075 64.573 66.8857C64.3042 67.2594 63.951 67.5625 63.5135 67.7949C63.076 68.0228 62.5952 68.1367 62.0711 68.1367C61.5151 68.1367 61.0298 68.0387 60.615 67.8428C60.2049 67.6468 59.8631 67.3779 59.5896 67.0361C59.3208 66.6943 59.118 66.3024 58.9813 65.8604C58.8491 65.4137 58.783 64.9421 58.783 64.4453V64.1582C58.783 63.6615 58.8491 63.1921 58.9813 62.75C59.118 62.3034 59.3208 61.9092 59.5896 61.5674C59.8631 61.2256 60.2049 60.9567 60.615 60.7607C61.0298 60.5648 61.5151 60.4668 62.0711 60.4668C62.6499 60.4668 63.1557 60.5853 63.5887 60.8223C64.0216 61.0547 64.3611 61.3737 64.6072 61.7793C64.8579 62.1803 64.9946 62.6361 65.0174 63.1465H63.8143C63.7915 62.8411 63.7049 62.5654 63.5545 62.3193C63.4087 62.0732 63.2081 61.8773 62.9529 61.7314C62.7023 61.5811 62.4083 61.5059 62.0711 61.5059C61.6837 61.5059 61.3579 61.5833 61.0936 61.7383C60.8338 61.8887 60.6264 62.0938 60.4715 62.3535C60.3211 62.6087 60.2117 62.8936 60.1434 63.208C60.0796 63.5179 60.0477 63.8346 60.0477 64.1582V64.4453C60.0477 64.7689 60.0796 65.0879 60.1434 65.4023C60.2072 65.7168 60.3143 66.0016 60.4646 66.2568C60.6196 66.512 60.827 66.7171 61.0867 66.8721C61.351 67.0225 61.6792 67.0977 62.0711 67.0977ZM69.7086 68.1367C69.1936 68.1367 68.7265 68.0501 68.3072 67.877C67.8925 67.6992 67.5348 67.4508 67.234 67.1318C66.9378 66.8128 66.7099 66.4346 66.5504 65.9971C66.3909 65.5596 66.3111 65.0811 66.3111 64.5615V64.2744C66.3111 63.6729 66.4 63.1374 66.5777 62.668C66.7555 62.194 66.997 61.793 67.3023 61.4648C67.6077 61.1367 67.954 60.8883 68.3414 60.7197C68.7288 60.5511 69.1298 60.4668 69.5445 60.4668C70.0732 60.4668 70.5289 60.5579 70.9117 60.7402C71.2991 60.9225 71.6158 61.1777 71.8619 61.5059C72.108 61.8294 72.2903 62.2122 72.4088 62.6543C72.5273 63.0918 72.5865 63.5703 72.5865 64.0898V64.6572H67.0631V63.625H71.3219V63.5293C71.3036 63.2012 71.2353 62.8822 71.1168 62.5723C71.0029 62.2624 70.8206 62.0072 70.5699 61.8066C70.3193 61.6061 69.9775 61.5059 69.5445 61.5059C69.2574 61.5059 68.9931 61.5674 68.7516 61.6904C68.51 61.8089 68.3027 61.9867 68.1295 62.2236C67.9563 62.4606 67.8219 62.75 67.7262 63.0918C67.6305 63.4336 67.5826 63.8278 67.5826 64.2744V64.5615C67.5826 64.9124 67.6305 65.2428 67.7262 65.5527C67.8264 65.8581 67.97 66.127 68.1568 66.3594C68.3482 66.5918 68.5784 66.7741 68.8473 66.9062C69.1207 67.0384 69.4306 67.1045 69.777 67.1045C70.2236 67.1045 70.6018 67.0133 70.9117 66.8311C71.2216 66.6488 71.4928 66.4049 71.7252 66.0996L72.4908 66.708C72.3313 66.9495 72.1285 67.1797 71.8824 67.3984C71.6363 67.6172 71.3333 67.7949 70.9732 67.9316C70.6178 68.0684 70.1962 68.1367 69.7086 68.1367Z" fill="#1B1C21"/>
<path opacity="0.721842" d="M20.792 97.2881H18.2012V95.9277H20.792C21.2432 95.9277 21.6077 95.8548 21.8857 95.709C22.1637 95.5632 22.3665 95.3626 22.4941 95.1074C22.6263 94.8477 22.6924 94.5514 22.6924 94.2188C22.6924 93.9043 22.6263 93.6104 22.4941 93.3369C22.3665 93.0589 22.1637 92.8356 21.8857 92.667C21.6077 92.4984 21.2432 92.4141 20.792 92.4141H18.7275V101H17.0117V91.0469H20.792C21.5622 91.0469 22.2161 91.1836 22.7539 91.457C23.2962 91.7259 23.7087 92.0996 23.9912 92.5781C24.2738 93.0521 24.415 93.5944 24.415 94.2051C24.415 94.8477 24.2738 95.3991 23.9912 95.8594C23.7087 96.3197 23.2962 96.6729 22.7539 96.9189C22.2161 97.165 21.5622 97.2881 20.792 97.2881ZM27.4434 95.0117V101H25.7959V93.6035H27.3682L27.4434 95.0117ZM29.7061 93.5557L29.6924 95.0869C29.5921 95.0687 29.4827 95.055 29.3643 95.0459C29.2503 95.0368 29.1364 95.0322 29.0225 95.0322C28.7399 95.0322 28.4915 95.0732 28.2773 95.1553C28.0632 95.2327 27.8831 95.3467 27.7373 95.4971C27.596 95.6429 27.4867 95.8206 27.4092 96.0303C27.3317 96.2399 27.2861 96.4746 27.2725 96.7344L26.8965 96.7617C26.8965 96.2969 26.9421 95.8662 27.0332 95.4697C27.1243 95.0732 27.2611 94.7246 27.4434 94.4238C27.6302 94.123 27.8626 93.8883 28.1406 93.7197C28.4232 93.5511 28.749 93.4668 29.1182 93.4668C29.2184 93.4668 29.3255 93.4759 29.4395 93.4941C29.5579 93.5124 29.6468 93.5329 29.7061 93.5557ZM32.502 93.6035V101H30.8477V93.6035H32.502ZM30.7383 91.6621C30.7383 91.4115 30.8203 91.2041 30.9844 91.04C31.153 90.8714 31.3854 90.7871 31.6816 90.7871C31.9733 90.7871 32.2035 90.8714 32.3721 91.04C32.5407 91.2041 32.625 91.4115 32.625 91.6621C32.625 91.9082 32.5407 92.1133 32.3721 92.2773C32.2035 92.4414 31.9733 92.5234 31.6816 92.5234C31.3854 92.5234 31.153 92.4414 30.9844 92.2773C30.8203 92.1133 30.7383 91.9082 30.7383 91.6621ZM37.3281 99.8242C37.597 99.8242 37.8385 99.7718 38.0527 99.667C38.2715 99.5576 38.4469 99.4072 38.5791 99.2158C38.7158 99.0244 38.791 98.8034 38.8047 98.5527H40.3564C40.3473 99.0312 40.2061 99.4665 39.9326 99.8584C39.6592 100.25 39.2969 100.562 38.8457 100.795C38.3945 101.023 37.8955 101.137 37.3486 101.137C36.7835 101.137 36.2913 101.041 35.8721 100.85C35.4528 100.654 35.1042 100.385 34.8262 100.043C34.5482 99.7012 34.3385 99.307 34.1973 98.8604C34.0605 98.4137 33.9922 97.9352 33.9922 97.4248V97.1855C33.9922 96.6751 34.0605 96.1966 34.1973 95.75C34.3385 95.2988 34.5482 94.9023 34.8262 94.5605C35.1042 94.2188 35.4528 93.9521 35.8721 93.7607C36.2913 93.5648 36.7812 93.4668 37.3418 93.4668C37.9342 93.4668 38.4538 93.5853 38.9004 93.8223C39.347 94.0547 39.6979 94.3805 39.9531 94.7998C40.2129 95.2145 40.3473 95.6976 40.3564 96.249H38.8047C38.791 95.9756 38.7227 95.7295 38.5996 95.5107C38.4811 95.2874 38.3125 95.1097 38.0938 94.9775C37.8796 94.8454 37.6221 94.7793 37.3213 94.7793C36.9886 94.7793 36.7129 94.8477 36.4941 94.9844C36.2754 95.1165 36.1045 95.2988 35.9814 95.5312C35.8584 95.7591 35.7695 96.0166 35.7148 96.3037C35.6647 96.5863 35.6396 96.8802 35.6396 97.1855V97.4248C35.6396 97.7301 35.6647 98.0264 35.7148 98.3135C35.765 98.6006 35.8516 98.8581 35.9746 99.0859C36.1022 99.3092 36.2754 99.4893 36.4941 99.626C36.7129 99.7581 36.9909 99.8242 37.3281 99.8242ZM44.8818 101.137C44.335 101.137 43.8405 101.048 43.3984 100.87C42.9609 100.688 42.5872 100.435 42.2773 100.111C41.972 99.7878 41.7373 99.4072 41.5732 98.9697C41.4092 98.5322 41.3271 98.0605 41.3271 97.5547V97.2812C41.3271 96.7025 41.4115 96.1784 41.5801 95.709C41.7487 95.2396 41.9834 94.8385 42.2842 94.5059C42.585 94.1686 42.9404 93.9111 43.3506 93.7334C43.7607 93.5557 44.2051 93.4668 44.6836 93.4668C45.2122 93.4668 45.6748 93.5557 46.0713 93.7334C46.4678 93.9111 46.7959 94.1618 47.0557 94.4854C47.32 94.8044 47.516 95.1849 47.6436 95.627C47.7757 96.069 47.8418 96.5566 47.8418 97.0898V97.7939H42.127V96.6113H46.2148V96.4814C46.2057 96.1852 46.1465 95.9072 46.0371 95.6475C45.9323 95.3877 45.7705 95.1781 45.5518 95.0186C45.333 94.859 45.0413 94.7793 44.6768 94.7793C44.4033 94.7793 44.1595 94.8385 43.9453 94.957C43.7357 95.071 43.5602 95.2373 43.4189 95.4561C43.2777 95.6748 43.1683 95.9391 43.0908 96.249C43.0179 96.5544 42.9814 96.8984 42.9814 97.2812V97.5547C42.9814 97.8783 43.0247 98.179 43.1113 98.457C43.2025 98.7305 43.3346 98.9697 43.5078 99.1748C43.681 99.3799 43.8906 99.5417 44.1367 99.6602C44.3828 99.7741 44.6631 99.8311 44.9775 99.8311C45.374 99.8311 45.7272 99.7513 46.0371 99.5918C46.347 99.4323 46.6159 99.2067 46.8438 98.915L47.7119 99.7559C47.5524 99.9883 47.3451 100.212 47.0898 100.426C46.8346 100.635 46.5225 100.806 46.1533 100.938C45.7887 101.071 45.3649 101.137 44.8818 101.137Z" fill="#7E7E82"/>
<path d="M18.4746 112.047V122H17.1553V112.047H18.4746ZM22.6445 116.524V117.604H18.1875V116.524H22.6445ZM23.3213 112.047V113.127H18.1875V112.047H23.3213ZM25.9891 115.766V122H24.7244V114.604H25.9549L25.9891 115.766ZM28.2996 114.562L28.2928 115.738C28.188 115.715 28.0877 115.702 27.992 115.697C27.9008 115.688 27.796 115.684 27.6775 115.684C27.3859 115.684 27.1284 115.729 26.9051 115.82C26.6818 115.911 26.4926 116.039 26.3377 116.203C26.1827 116.367 26.0597 116.563 25.9686 116.791C25.882 117.014 25.825 117.26 25.7977 117.529L25.4422 117.734C25.4422 117.288 25.4855 116.868 25.5721 116.477C25.6632 116.085 25.8022 115.738 25.9891 115.438C26.1759 115.132 26.4129 114.895 26.7 114.727C26.9917 114.553 27.338 114.467 27.7391 114.467C27.8302 114.467 27.935 114.478 28.0535 114.501C28.172 114.519 28.254 114.54 28.2996 114.562ZM32.6012 122.137C32.0862 122.137 31.6191 122.05 31.1998 121.877C30.7851 121.699 30.4273 121.451 30.1266 121.132C29.8303 120.813 29.6025 120.435 29.443 119.997C29.2835 119.56 29.2037 119.081 29.2037 118.562V118.274C29.2037 117.673 29.2926 117.137 29.4703 116.668C29.648 116.194 29.8896 115.793 30.1949 115.465C30.5003 115.137 30.8466 114.888 31.234 114.72C31.6214 114.551 32.0224 114.467 32.4371 114.467C32.9658 114.467 33.4215 114.558 33.8043 114.74C34.1917 114.923 34.5084 115.178 34.7545 115.506C35.0006 115.829 35.1829 116.212 35.3014 116.654C35.4199 117.092 35.4791 117.57 35.4791 118.09V118.657H29.9557V117.625H34.2145V117.529C34.1962 117.201 34.1279 116.882 34.0094 116.572C33.8954 116.262 33.7132 116.007 33.4625 115.807C33.2118 115.606 32.8701 115.506 32.4371 115.506C32.15 115.506 31.8857 115.567 31.6441 115.69C31.4026 115.809 31.1952 115.987 31.0221 116.224C30.8489 116.461 30.7145 116.75 30.6187 117.092C30.523 117.434 30.4752 117.828 30.4752 118.274V118.562C30.4752 118.912 30.523 119.243 30.6187 119.553C30.719 119.858 30.8626 120.127 31.0494 120.359C31.2408 120.592 31.471 120.774 31.7398 120.906C32.0133 121.038 32.3232 121.104 32.6695 121.104C33.1161 121.104 33.4944 121.013 33.8043 120.831C34.1142 120.649 34.3854 120.405 34.6178 120.1L35.3834 120.708C35.2239 120.95 35.0211 121.18 34.775 121.398C34.5289 121.617 34.2258 121.795 33.8658 121.932C33.5104 122.068 33.0888 122.137 32.6012 122.137ZM40.225 122.137C39.71 122.137 39.2429 122.05 38.8236 121.877C38.4089 121.699 38.0512 121.451 37.7504 121.132C37.4542 120.813 37.2263 120.435 37.0668 119.997C36.9073 119.56 36.8275 119.081 36.8275 118.562V118.274C36.8275 117.673 36.9164 117.137 37.0941 116.668C37.2719 116.194 37.5134 115.793 37.8188 115.465C38.1241 115.137 38.4704 114.888 38.8578 114.72C39.2452 114.551 39.6462 114.467 40.0609 114.467C40.5896 114.467 41.0453 114.558 41.4281 114.74C41.8155 114.923 42.1322 115.178 42.3783 115.506C42.6244 115.829 42.8067 116.212 42.9252 116.654C43.0437 117.092 43.1029 117.57 43.1029 118.09V118.657H37.5795V117.625H41.8383V117.529C41.8201 117.201 41.7517 116.882 41.6332 116.572C41.5193 116.262 41.337 116.007 41.0863 115.807C40.8357 115.606 40.4939 115.506 40.0609 115.506C39.7738 115.506 39.5095 115.567 39.268 115.69C39.0264 115.809 38.8191 115.987 38.6459 116.224C38.4727 116.461 38.3383 116.75 38.2426 117.092C38.1469 117.434 38.099 117.828 38.099 118.274V118.562C38.099 118.912 38.1469 119.243 38.2426 119.553C38.3428 119.858 38.4864 120.127 38.6732 120.359C38.8646 120.592 39.0948 120.774 39.3637 120.906C39.6371 121.038 39.947 121.104 40.2934 121.104C40.74 121.104 41.1182 121.013 41.4281 120.831C41.738 120.649 42.0092 120.405 42.2416 120.1L43.0072 120.708C42.8477 120.95 42.6449 121.18 42.3988 121.398C42.1527 121.617 41.8497 121.795 41.4896 121.932C41.1342 122.068 40.7126 122.137 40.225 122.137Z" fill="#1B1C21"/>
</svg>
