<svg width="240" height="160" viewBox="0 0 240 160" fill="none" xmlns="http://www.w3.org/2000/svg">
<rect x="0.5" y="0.5" width="239" height="159" rx="5.5" fill="white" stroke="#EAEAEA"/>
<mask id="mask0_0_748" style="mask-type:luminance" maskUnits="userSpaceOnUse" x="0" y="0" width="240" height="160">
<rect x="0.5" y="0.5" width="239" height="159" rx="5.5" fill="white" stroke="white"/>
</mask>
<g mask="url(#mask0_0_748)">
<rect x="185" y="105" width="38" height="38" rx="19" stroke="#FF3E79" stroke-width="2"/>
<path fill-rule="evenodd" clip-rule="evenodd" d="M205.5 124L201.707 120.207C201.317 119.817 201.317 119.183 201.707 118.793L201.793 118.707C202.183 118.317 202.817 118.317 203.207 118.707L207.793 123.293C208.183 123.683 208.183 124.317 207.793 124.707L203.207 129.293C202.817 129.683 202.183 129.683 201.793 129.293L201.707 129.207C201.317 128.817 201.317 128.183 201.707 127.793L205.5 124Z" fill="#FF3E79"/>
<path d="M24.2812 31.4453V33H18.5703V31.4453H24.2812ZM19.1172 21.625V33H17.1562V21.625H19.1172ZM30.175 31.3047V27.2734C30.175 26.9714 30.1203 26.7109 30.0109 26.4922C29.9016 26.2734 29.7349 26.1042 29.5109 25.9844C29.2922 25.8646 29.0161 25.8047 28.6828 25.8047C28.3755 25.8047 28.1099 25.8568 27.8859 25.9609C27.662 26.0651 27.4875 26.2057 27.3625 26.3828C27.2375 26.5599 27.175 26.7604 27.175 26.9844H25.3C25.3 26.651 25.3807 26.3281 25.5422 26.0156C25.7036 25.7031 25.938 25.4245 26.2453 25.1797C26.5526 24.9349 26.9198 24.7422 27.3469 24.6016C27.774 24.4609 28.2531 24.3906 28.7844 24.3906C29.4198 24.3906 29.9823 24.4974 30.4719 24.7109C30.9667 24.9245 31.3547 25.2474 31.6359 25.6797C31.9224 26.1068 32.0656 26.6432 32.0656 27.2891V31.0469C32.0656 31.4323 32.0917 31.7786 32.1438 32.0859C32.201 32.388 32.2818 32.651 32.3859 32.875V33H30.4563C30.3677 32.7969 30.2974 32.5391 30.2453 32.2266C30.1984 31.9089 30.175 31.6016 30.175 31.3047ZM30.4484 27.8594L30.4641 29.0234H29.1125C28.7635 29.0234 28.4563 29.0573 28.1906 29.125C27.925 29.1875 27.7036 29.2812 27.5266 29.4062C27.3495 29.5312 27.2167 29.6823 27.1281 29.8594C27.0396 30.0365 26.9953 30.237 26.9953 30.4609C26.9953 30.6849 27.0474 30.8906 27.1516 31.0781C27.2557 31.2604 27.4068 31.4036 27.6047 31.5078C27.8078 31.612 28.0526 31.6641 28.3391 31.6641C28.7245 31.6641 29.0604 31.5859 29.3469 31.4297C29.6385 31.2682 29.8677 31.0729 30.0344 30.8438C30.201 30.6094 30.2896 30.388 30.3 30.1797L30.9094 31.0156C30.8469 31.2292 30.7401 31.4583 30.5891 31.7031C30.438 31.9479 30.2401 32.1823 29.9953 32.4062C29.7557 32.625 29.4667 32.8047 29.1281 32.9453C28.7948 33.0859 28.4094 33.1562 27.9719 33.1562C27.4198 33.1562 26.9276 33.0469 26.4953 32.8281C26.063 32.6042 25.7245 32.3047 25.4797 31.9297C25.2349 31.5495 25.1125 31.1198 25.1125 30.6406C25.1125 30.1927 25.1958 29.7969 25.3625 29.4531C25.5344 29.1042 25.7844 28.8125 26.1125 28.5781C26.4458 28.3438 26.8521 28.1667 27.3313 28.0469C27.8104 27.9219 28.3573 27.8594 28.9719 27.8594H30.4484ZM35.725 26.1719V36.25H33.8422V24.5469H35.5766L35.725 26.1719ZM41.2328 28.6953V28.8594C41.2328 29.474 41.1599 30.0443 41.0141 30.5703C40.8734 31.0911 40.6625 31.5469 40.3813 31.9375C40.1052 32.3229 39.7641 32.6224 39.3578 32.8359C38.9516 33.0495 38.4828 33.1562 37.9516 33.1562C37.4255 33.1562 36.9646 33.0599 36.5688 32.8672C36.1781 32.6693 35.8474 32.3906 35.5766 32.0312C35.3057 31.6719 35.087 31.25 34.9203 30.7656C34.7589 30.276 34.6443 29.7396 34.5766 29.1562V28.5234C34.6443 27.9036 34.7589 27.3411 34.9203 26.8359C35.087 26.3307 35.3057 25.8958 35.5766 25.5312C35.8474 25.1667 36.1781 24.8854 36.5688 24.6875C36.9594 24.4896 37.4151 24.3906 37.9359 24.3906C38.4672 24.3906 38.9385 24.4948 39.35 24.7031C39.7615 24.9062 40.1078 25.1979 40.3891 25.5781C40.6703 25.9531 40.8813 26.4062 41.0219 26.9375C41.1625 27.4635 41.2328 28.0495 41.2328 28.6953ZM39.35 28.8594V28.6953C39.35 28.3047 39.3135 27.9427 39.2406 27.6094C39.1677 27.2708 39.0531 26.974 38.8969 26.7188C38.7406 26.4635 38.5401 26.2656 38.2953 26.125C38.0557 25.9792 37.7667 25.9062 37.4281 25.9062C37.0948 25.9062 36.8083 25.9635 36.5688 26.0781C36.3292 26.1875 36.1286 26.3411 35.9672 26.5391C35.8057 26.737 35.6807 26.9688 35.5922 27.2344C35.5036 27.4948 35.4411 27.7786 35.4047 28.0859V29.6016C35.4672 29.9766 35.574 30.3203 35.725 30.6328C35.876 30.9453 36.0896 31.1953 36.3656 31.3828C36.6469 31.5651 37.0063 31.6562 37.4438 31.6562C37.7823 31.6562 38.0714 31.5833 38.3109 31.4375C38.5505 31.2917 38.7458 31.0911 38.8969 30.8359C39.0531 30.5755 39.1677 30.276 39.2406 29.9375C39.3135 29.599 39.35 29.2396 39.35 28.8594ZM46.5094 24.5469V25.9219H41.7437V24.5469H46.5094ZM43.1187 22.4766H45.0016V30.6641C45.0016 30.9245 45.038 31.125 45.1109 31.2656C45.1891 31.401 45.2958 31.4922 45.4312 31.5391C45.5667 31.5859 45.7255 31.6094 45.9078 31.6094C46.038 31.6094 46.163 31.6016 46.2828 31.5859C46.4026 31.5703 46.499 31.5547 46.5719 31.5391L46.5797 32.9766C46.4234 33.0234 46.2411 33.0651 46.0328 33.1016C45.8297 33.138 45.5953 33.1562 45.3297 33.1562C44.8974 33.1562 44.5146 33.0807 44.1812 32.9297C43.8479 32.7734 43.5875 32.5208 43.4 32.1719C43.2125 31.8229 43.1187 31.3594 43.1187 30.7812V22.4766ZM47.2156 28.8672V28.6875C47.2156 28.0781 47.3042 27.513 47.4813 26.9922C47.6583 26.4661 47.9135 26.0104 48.2469 25.625C48.5854 25.2344 48.9969 24.9323 49.4813 24.7188C49.9708 24.5 50.5229 24.3906 51.1375 24.3906C51.7573 24.3906 52.3094 24.5 52.7938 24.7188C53.2833 24.9323 53.6974 25.2344 54.0359 25.625C54.3745 26.0104 54.6323 26.4661 54.8094 26.9922C54.9865 27.513 55.075 28.0781 55.075 28.6875V28.8672C55.075 29.4766 54.9865 30.0417 54.8094 30.5625C54.6323 31.0833 54.3745 31.5391 54.0359 31.9297C53.6974 32.3151 53.2859 32.6172 52.8016 32.8359C52.3172 33.0495 51.7677 33.1562 51.1531 33.1562C50.5333 33.1562 49.9786 33.0495 49.4891 32.8359C49.0047 32.6172 48.5932 32.3151 48.2547 31.9297C47.9161 31.5391 47.6583 31.0833 47.4813 30.5625C47.3042 30.0417 47.2156 29.4766 47.2156 28.8672ZM49.0984 28.6875V28.8672C49.0984 29.2474 49.1375 29.6068 49.2156 29.9453C49.2938 30.2839 49.4161 30.5807 49.5828 30.8359C49.7495 31.0911 49.963 31.2917 50.2234 31.4375C50.4839 31.5833 50.7938 31.6562 51.1531 31.6562C51.5021 31.6562 51.8042 31.5833 52.0594 31.4375C52.3198 31.2917 52.5333 31.0911 52.7 30.8359C52.8667 30.5807 52.9891 30.2839 53.0672 29.9453C53.1505 29.6068 53.1922 29.2474 53.1922 28.8672V28.6875C53.1922 28.3125 53.1505 27.9583 53.0672 27.625C52.9891 27.2865 52.8641 26.987 52.6922 26.7266C52.5255 26.4661 52.312 26.263 52.0516 26.1172C51.7964 25.9661 51.4917 25.8906 51.1375 25.8906C50.7833 25.8906 50.476 25.9661 50.2156 26.1172C49.9604 26.263 49.7495 26.4661 49.5828 26.7266C49.4161 26.987 49.2938 27.2865 49.2156 27.625C49.1375 27.9583 49.0984 28.3125 49.0984 28.6875ZM58.3438 26.1719V36.25H56.4609V24.5469H58.1953L58.3438 26.1719ZM63.8516 28.6953V28.8594C63.8516 29.474 63.7786 30.0443 63.6328 30.5703C63.4922 31.0911 63.2812 31.5469 63 31.9375C62.724 32.3229 62.3828 32.6224 61.9766 32.8359C61.5703 33.0495 61.1016 33.1562 60.5703 33.1562C60.0443 33.1562 59.5833 33.0599 59.1875 32.8672C58.7969 32.6693 58.4661 32.3906 58.1953 32.0312C57.9245 31.6719 57.7057 31.25 57.5391 30.7656C57.3776 30.276 57.263 29.7396 57.1953 29.1562V28.5234C57.263 27.9036 57.3776 27.3411 57.5391 26.8359C57.7057 26.3307 57.9245 25.8958 58.1953 25.5312C58.4661 25.1667 58.7969 24.8854 59.1875 24.6875C59.5781 24.4896 60.0339 24.3906 60.5547 24.3906C61.0859 24.3906 61.5573 24.4948 61.9688 24.7031C62.3802 24.9062 62.7266 25.1979 63.0078 25.5781C63.2891 25.9531 63.5 26.4062 63.6406 26.9375C63.7812 27.4635 63.8516 28.0495 63.8516 28.6953ZM61.9688 28.8594V28.6953C61.9688 28.3047 61.9323 27.9427 61.8594 27.6094C61.7865 27.2708 61.6719 26.974 61.5156 26.7188C61.3594 26.4635 61.1589 26.2656 60.9141 26.125C60.6745 25.9792 60.3854 25.9062 60.0469 25.9062C59.7135 25.9062 59.4271 25.9635 59.1875 26.0781C58.9479 26.1875 58.7474 26.3411 58.5859 26.5391C58.4245 26.737 58.2995 26.9688 58.2109 27.2344C58.1224 27.4948 58.0599 27.7786 58.0234 28.0859V29.6016C58.0859 29.9766 58.1927 30.3203 58.3438 30.6328C58.4948 30.9453 58.7083 31.1953 58.9844 31.3828C59.2656 31.5651 59.625 31.6562 60.0625 31.6562C60.401 31.6562 60.6901 31.5833 60.9297 31.4375C61.1693 31.2917 61.3646 31.0911 61.5156 30.8359C61.6719 30.5755 61.7865 30.276 61.8594 29.9375C61.9323 29.599 61.9688 29.2396 61.9688 28.8594ZM69.225 21.625H73.2484C74.113 21.625 74.85 21.7552 75.4594 22.0156C76.0687 22.276 76.5349 22.6615 76.8578 23.1719C77.1859 23.6771 77.35 24.3021 77.35 25.0469C77.35 25.6146 77.2458 26.1146 77.0375 26.5469C76.8292 26.9792 76.5349 27.3438 76.1547 27.6406C75.7745 27.9323 75.3214 28.1589 74.7953 28.3203L74.2016 28.6094H70.5844L70.5687 27.0547H73.2797C73.7484 27.0547 74.1391 26.9714 74.4516 26.8047C74.7641 26.638 74.9984 26.4115 75.1547 26.125C75.3161 25.8333 75.3969 25.5052 75.3969 25.1406C75.3969 24.7448 75.3187 24.401 75.1625 24.1094C75.0115 23.8125 74.7771 23.5859 74.4594 23.4297C74.1417 23.2682 73.738 23.1875 73.2484 23.1875H71.1859V33H69.225V21.625ZM75.7172 33L73.0453 27.8906L75.1 27.8828L77.8109 32.8984V33H75.7172ZM82.6422 33.1562C82.0172 33.1562 81.4521 33.0547 80.9469 32.8516C80.4469 32.6432 80.0198 32.3542 79.6656 31.9844C79.3167 31.6146 79.0484 31.1797 78.8609 30.6797C78.6734 30.1797 78.5797 29.6406 78.5797 29.0625V28.75C78.5797 28.0885 78.676 27.4896 78.8688 26.9531C79.0615 26.4167 79.3297 25.9583 79.6734 25.5781C80.0172 25.1927 80.4234 24.8984 80.8922 24.6953C81.3609 24.4922 81.8688 24.3906 82.4156 24.3906C83.0198 24.3906 83.5484 24.4922 84.0016 24.6953C84.4547 24.8984 84.8297 25.1849 85.1266 25.5547C85.4286 25.9193 85.6526 26.3542 85.7984 26.8594C85.9495 27.3646 86.025 27.9219 86.025 28.5312V29.3359H79.4938V27.9844H84.1656V27.8359C84.1552 27.4974 84.0875 27.1797 83.9625 26.8828C83.8427 26.5859 83.6578 26.3464 83.4078 26.1641C83.1578 25.9818 82.8245 25.8906 82.4078 25.8906C82.0953 25.8906 81.8167 25.9583 81.5719 26.0938C81.3323 26.224 81.1318 26.4141 80.9703 26.6641C80.8089 26.9141 80.6839 27.2161 80.5953 27.5703C80.512 27.9193 80.4703 28.3125 80.4703 28.75V29.0625C80.4703 29.4323 80.5198 29.776 80.6188 30.0938C80.7229 30.4062 80.874 30.6797 81.0719 30.9141C81.2698 31.1484 81.5094 31.3333 81.7906 31.4688C82.0719 31.599 82.3922 31.6641 82.7516 31.6641C83.2047 31.6641 83.6083 31.5729 83.9625 31.3906C84.3167 31.2083 84.624 30.9505 84.8844 30.6172L85.8766 31.5781C85.6943 31.8438 85.4573 32.099 85.1656 32.3438C84.874 32.5833 84.5172 32.7786 84.0953 32.9297C83.6786 33.0807 83.1943 33.1562 82.6422 33.1562ZM89.1844 26.1719V36.25H87.3016V24.5469H89.0359L89.1844 26.1719ZM94.6922 28.6953V28.8594C94.6922 29.474 94.6193 30.0443 94.4734 30.5703C94.3328 31.0911 94.1219 31.5469 93.8406 31.9375C93.5646 32.3229 93.2234 32.6224 92.8172 32.8359C92.4109 33.0495 91.9422 33.1562 91.4109 33.1562C90.8849 33.1562 90.424 33.0599 90.0281 32.8672C89.6375 32.6693 89.3068 32.3906 89.0359 32.0312C88.7651 31.6719 88.5464 31.25 88.3797 30.7656C88.2182 30.276 88.1036 29.7396 88.0359 29.1562V28.5234C88.1036 27.9036 88.2182 27.3411 88.3797 26.8359C88.5464 26.3307 88.7651 25.8958 89.0359 25.5312C89.3068 25.1667 89.6375 24.8854 90.0281 24.6875C90.4187 24.4896 90.8745 24.3906 91.3953 24.3906C91.9266 24.3906 92.3979 24.4948 92.8094 24.7031C93.2208 24.9062 93.5672 25.1979 93.8484 25.5781C94.1297 25.9531 94.3406 26.4062 94.4812 26.9375C94.6219 27.4635 94.6922 28.0495 94.6922 28.6953ZM92.8094 28.8594V28.6953C92.8094 28.3047 92.7729 27.9427 92.7 27.6094C92.6271 27.2708 92.5125 26.974 92.3562 26.7188C92.2 26.4635 91.9995 26.2656 91.7547 26.125C91.5151 25.9792 91.226 25.9062 90.8875 25.9062C90.5542 25.9062 90.2677 25.9635 90.0281 26.0781C89.7885 26.1875 89.588 26.3411 89.4266 26.5391C89.2651 26.737 89.1401 26.9688 89.0516 27.2344C88.963 27.4948 88.9005 27.7786 88.8641 28.0859V29.6016C88.9266 29.9766 89.0333 30.3203 89.1844 30.6328C89.3354 30.9453 89.549 31.1953 89.825 31.3828C90.1062 31.5651 90.4656 31.6562 90.9031 31.6562C91.2417 31.6562 91.5307 31.5833 91.7703 31.4375C92.0099 31.2917 92.2052 31.0911 92.3562 30.8359C92.5125 30.5755 92.6271 30.276 92.7 29.9375C92.7729 29.599 92.8094 29.2396 92.8094 28.8594ZM100.859 31.3047V27.2734C100.859 26.9714 100.805 26.7109 100.695 26.4922C100.586 26.2734 100.419 26.1042 100.195 25.9844C99.9766 25.8646 99.7005 25.8047 99.3672 25.8047C99.0599 25.8047 98.7943 25.8568 98.5703 25.9609C98.3464 26.0651 98.1719 26.2057 98.0469 26.3828C97.9219 26.5599 97.8594 26.7604 97.8594 26.9844H95.9844C95.9844 26.651 96.0651 26.3281 96.2266 26.0156C96.388 25.7031 96.6224 25.4245 96.9297 25.1797C97.237 24.9349 97.6042 24.7422 98.0312 24.6016C98.4583 24.4609 98.9375 24.3906 99.4688 24.3906C100.104 24.3906 100.667 24.4974 101.156 24.7109C101.651 24.9245 102.039 25.2474 102.32 25.6797C102.607 26.1068 102.75 26.6432 102.75 27.2891V31.0469C102.75 31.4323 102.776 31.7786 102.828 32.0859C102.885 32.388 102.966 32.651 103.07 32.875V33H101.141C101.052 32.7969 100.982 32.5391 100.93 32.2266C100.883 31.9089 100.859 31.6016 100.859 31.3047ZM101.133 27.8594L101.148 29.0234H99.7969C99.4479 29.0234 99.1406 29.0573 98.875 29.125C98.6094 29.1875 98.388 29.2812 98.2109 29.4062C98.0339 29.5312 97.901 29.6823 97.8125 29.8594C97.724 30.0365 97.6797 30.237 97.6797 30.4609C97.6797 30.6849 97.7318 30.8906 97.8359 31.0781C97.9401 31.2604 98.0911 31.4036 98.2891 31.5078C98.4922 31.612 98.737 31.6641 99.0234 31.6641C99.4089 31.6641 99.7448 31.5859 100.031 31.4297C100.323 31.2682 100.552 31.0729 100.719 30.8438C100.885 30.6094 100.974 30.388 100.984 30.1797L101.594 31.0156C101.531 31.2292 101.424 31.4583 101.273 31.7031C101.122 31.9479 100.924 32.1823 100.68 32.4062C100.44 32.625 100.151 32.8047 99.8125 32.9453C99.4792 33.0859 99.0938 33.1562 98.6562 33.1562C98.1042 33.1562 97.612 33.0469 97.1797 32.8281C96.7474 32.6042 96.4089 32.3047 96.1641 31.9297C95.9193 31.5495 95.7969 31.1198 95.7969 30.6406C95.7969 30.1927 95.8802 29.7969 96.0469 29.4531C96.2188 29.1042 96.4688 28.8125 96.7969 28.5781C97.1302 28.3438 97.5365 28.1667 98.0156 28.0469C98.4948 27.9219 99.0417 27.8594 99.6562 27.8594H101.133ZM106.534 24.5469V33H104.644V24.5469H106.534ZM104.519 22.3281C104.519 22.0417 104.613 21.8047 104.8 21.6172C104.993 21.4245 105.258 21.3281 105.597 21.3281C105.93 21.3281 106.193 21.4245 106.386 21.6172C106.579 21.8047 106.675 22.0417 106.675 22.3281C106.675 22.6094 106.579 22.8438 106.386 23.0312C106.193 23.2188 105.93 23.3125 105.597 23.3125C105.258 23.3125 104.993 23.2188 104.8 23.0312C104.613 22.8438 104.519 22.6094 104.519 22.3281ZM110.287 26.1562V33H108.405V24.5469H110.202L110.287 26.1562ZM112.873 24.4922L112.858 26.2422C112.743 26.2214 112.618 26.2057 112.483 26.1953C112.353 26.1849 112.222 26.1797 112.092 26.1797C111.769 26.1797 111.485 26.2266 111.241 26.3203C110.996 26.4089 110.79 26.5391 110.623 26.7109C110.462 26.8776 110.337 27.0807 110.248 27.3203C110.16 27.5599 110.108 27.8281 110.092 28.125L109.662 28.1562C109.662 27.625 109.715 27.1328 109.819 26.6797C109.923 26.2266 110.079 25.8281 110.287 25.4844C110.501 25.1406 110.767 24.8724 111.084 24.6797C111.407 24.487 111.78 24.3906 112.202 24.3906C112.316 24.3906 112.439 24.401 112.569 24.4219C112.704 24.4427 112.806 24.4661 112.873 24.4922Z" fill="#1B1C21"/>
</g>
</svg>
