<svg width="240" height="160" viewBox="0 0 240 160" fill="none" xmlns="http://www.w3.org/2000/svg">
<rect x="0.5" y="0.5" width="239" height="159" rx="5.5" fill="white" stroke="#EAEAEA"/>
<mask id="mask0_0_736" style="mask-type:luminance" maskUnits="userSpaceOnUse" x="0" y="0" width="240" height="160">
<rect x="0.5" y="0.5" width="239" height="159" rx="5.5" fill="white" stroke="white"/>
</mask>
<g mask="url(#mask0_0_736)">
<rect x="185" y="105" width="38" height="38" rx="19" stroke="#FF3E79" stroke-width="2"/>
<path fill-rule="evenodd" clip-rule="evenodd" d="M205.5 124L201.707 120.207C201.317 119.817 201.317 119.183 201.707 118.793L201.793 118.707C202.183 118.317 202.817 118.317 203.207 118.707L207.793 123.293C208.183 123.683 208.183 124.317 207.793 124.707L203.207 129.293C202.817 129.683 202.183 129.683 201.793 129.293L201.707 129.207C201.317 128.817 201.317 128.183 201.707 127.793L205.5 124Z" fill="#FF3E79"/>
<path d="M21.8359 21.625V33H19.8906V21.625H21.8359ZM25.4062 21.625V23.1875H16.3516V21.625H25.4062ZM30.2375 31.3047V27.2734C30.2375 26.9714 30.1828 26.7109 30.0734 26.4922C29.9641 26.2734 29.7974 26.1042 29.5734 25.9844C29.3547 25.8646 29.0786 25.8047 28.7453 25.8047C28.438 25.8047 28.1724 25.8568 27.9484 25.9609C27.7245 26.0651 27.55 26.2057 27.425 26.3828C27.3 26.5599 27.2375 26.7604 27.2375 26.9844H25.3625C25.3625 26.651 25.4432 26.3281 25.6047 26.0156C25.7661 25.7031 26.0005 25.4245 26.3078 25.1797C26.6151 24.9349 26.9823 24.7422 27.4094 24.6016C27.8365 24.4609 28.3156 24.3906 28.8469 24.3906C29.4823 24.3906 30.0448 24.4974 30.5344 24.7109C31.0292 24.9245 31.4172 25.2474 31.6984 25.6797C31.9849 26.1068 32.1281 26.6432 32.1281 27.2891V31.0469C32.1281 31.4323 32.1542 31.7786 32.2063 32.0859C32.2635 32.388 32.3443 32.651 32.4484 32.875V33H30.5188C30.4302 32.7969 30.3599 32.5391 30.3078 32.2266C30.2609 31.9089 30.2375 31.6016 30.2375 31.3047ZM30.5109 27.8594L30.5266 29.0234H29.175C28.826 29.0234 28.5188 29.0573 28.2531 29.125C27.9875 29.1875 27.7661 29.2812 27.5891 29.4062C27.412 29.5312 27.2792 29.6823 27.1906 29.8594C27.1021 30.0365 27.0578 30.237 27.0578 30.4609C27.0578 30.6849 27.1099 30.8906 27.2141 31.0781C27.3182 31.2604 27.4693 31.4036 27.6672 31.5078C27.8703 31.612 28.1151 31.6641 28.4016 31.6641C28.787 31.6641 29.1229 31.5859 29.4094 31.4297C29.701 31.2682 29.9302 31.0729 30.0969 30.8438C30.2635 30.6094 30.3521 30.388 30.3625 30.1797L30.9719 31.0156C30.9094 31.2292 30.8026 31.4583 30.6516 31.7031C30.5005 31.9479 30.3026 32.1823 30.0578 32.4062C29.8182 32.625 29.5292 32.8047 29.1906 32.9453C28.8573 33.0859 28.4719 33.1562 28.0344 33.1562C27.4823 33.1562 26.9901 33.0469 26.5578 32.8281C26.1255 32.6042 25.787 32.3047 25.5422 31.9297C25.2974 31.5495 25.175 31.1198 25.175 30.6406C25.175 30.1927 25.2583 29.7969 25.425 29.4531C25.5969 29.1042 25.8469 28.8125 26.175 28.5781C26.5083 28.3438 26.9146 28.1667 27.3938 28.0469C27.8729 27.9219 28.4198 27.8594 29.0344 27.8594H30.5109ZM33.9047 21H35.7875V31.1953L35.6078 33H33.9047V21ZM41.3031 28.6953V28.8594C41.3031 29.4844 41.2328 30.0599 41.0922 30.5859C40.9568 31.1068 40.7484 31.5599 40.4672 31.9453C40.1911 32.3307 39.8474 32.6302 39.4359 32.8438C39.0297 33.0521 38.5583 33.1562 38.0219 33.1562C37.4958 33.1562 37.0375 33.0573 36.6469 32.8594C36.2563 32.6615 35.9281 32.3802 35.6625 32.0156C35.4021 31.651 35.1911 31.2161 35.0297 30.7109C34.8682 30.2057 34.7536 29.6484 34.6859 29.0391V28.5156C34.7536 27.901 34.8682 27.3438 35.0297 26.8438C35.1911 26.3385 35.4021 25.9036 35.6625 25.5391C35.9281 25.1693 36.2536 24.8854 36.6391 24.6875C37.0297 24.4896 37.4854 24.3906 38.0063 24.3906C38.5479 24.3906 39.0245 24.4948 39.4359 24.7031C39.8526 24.9115 40.199 25.2083 40.475 25.5938C40.751 25.974 40.9568 26.4271 41.0922 26.9531C41.2328 27.4792 41.3031 28.0599 41.3031 28.6953ZM39.4203 28.8594V28.6953C39.4203 28.3151 39.3891 27.9583 39.3266 27.625C39.2641 27.2865 39.1599 26.9896 39.0141 26.7344C38.8734 26.4792 38.6807 26.2786 38.4359 26.1328C38.1964 25.9818 37.8969 25.9062 37.5375 25.9062C37.2042 25.9062 36.9177 25.9635 36.6781 26.0781C36.4385 26.1927 36.238 26.349 36.0766 26.5469C35.9151 26.7448 35.7875 26.974 35.6938 27.2344C35.6052 27.4948 35.5453 27.776 35.5141 28.0781V29.4922C35.5609 29.8828 35.6599 30.2422 35.8109 30.5703C35.9672 30.8932 36.1859 31.1536 36.4672 31.3516C36.7484 31.5443 37.1104 31.6406 37.5531 31.6406C37.9021 31.6406 38.1964 31.5703 38.4359 31.4297C38.6755 31.2891 38.8656 31.0938 39.0063 30.8438C39.1521 30.5885 39.2563 30.2917 39.3188 29.9531C39.3865 29.6146 39.4203 29.25 39.4203 28.8594ZM44.7125 21V33H42.8219V21H44.7125ZM50.3016 33.1562C49.6766 33.1562 49.1115 33.0547 48.6063 32.8516C48.1063 32.6432 47.6792 32.3542 47.325 31.9844C46.976 31.6146 46.7078 31.1797 46.5203 30.6797C46.3328 30.1797 46.2391 29.6406 46.2391 29.0625V28.75C46.2391 28.0885 46.3354 27.4896 46.5281 26.9531C46.7208 26.4167 46.9891 25.9583 47.3328 25.5781C47.6766 25.1927 48.0828 24.8984 48.5516 24.6953C49.0203 24.4922 49.5281 24.3906 50.075 24.3906C50.6792 24.3906 51.2078 24.4922 51.6609 24.6953C52.1141 24.8984 52.4891 25.1849 52.7859 25.5547C53.088 25.9193 53.312 26.3542 53.4578 26.8594C53.6089 27.3646 53.6844 27.9219 53.6844 28.5312V29.3359H47.1531V27.9844H51.825V27.8359C51.8146 27.4974 51.7469 27.1797 51.6219 26.8828C51.5021 26.5859 51.3172 26.3464 51.0672 26.1641C50.8172 25.9818 50.4839 25.8906 50.0672 25.8906C49.7547 25.8906 49.476 25.9583 49.2313 26.0938C48.9917 26.224 48.7911 26.4141 48.6297 26.6641C48.4682 26.9141 48.3432 27.2161 48.2547 27.5703C48.1714 27.9193 48.1297 28.3125 48.1297 28.75V29.0625C48.1297 29.4323 48.1792 29.776 48.2781 30.0938C48.3823 30.4062 48.5333 30.6797 48.7313 30.9141C48.9292 31.1484 49.1688 31.3333 49.45 31.4688C49.7313 31.599 50.0516 31.6641 50.4109 31.6641C50.8641 31.6641 51.2677 31.5729 51.6219 31.3906C51.976 31.2083 52.2833 30.9505 52.5438 30.6172L53.5359 31.5781C53.3536 31.8438 53.1167 32.099 52.825 32.3438C52.5333 32.5833 52.1766 32.7786 51.7547 32.9297C51.338 33.0807 50.8536 33.1562 50.3016 33.1562ZM58.8281 24.5469V25.9219H54.0625V24.5469H58.8281ZM55.4375 22.4766H57.3203V30.6641C57.3203 30.9245 57.3568 31.125 57.4297 31.2656C57.5078 31.401 57.6146 31.4922 57.75 31.5391C57.8854 31.5859 58.0443 31.6094 58.2266 31.6094C58.3568 31.6094 58.4818 31.6016 58.6016 31.5859C58.7214 31.5703 58.8177 31.5547 58.8906 31.5391L58.8984 32.9766C58.7422 33.0234 58.5599 33.0651 58.3516 33.1016C58.1484 33.138 57.9141 33.1562 57.6484 33.1562C57.2161 33.1562 56.8333 33.0807 56.5 32.9297C56.1667 32.7734 55.9062 32.5208 55.7188 32.1719C55.5312 31.8229 55.4375 31.3594 55.4375 30.7812V22.4766ZM64.0531 21.625H68.0766C68.9411 21.625 69.6781 21.7552 70.2875 22.0156C70.8969 22.276 71.363 22.6615 71.6859 23.1719C72.0141 23.6771 72.1781 24.3021 72.1781 25.0469C72.1781 25.6146 72.074 26.1146 71.8656 26.5469C71.6573 26.9792 71.363 27.3438 70.9828 27.6406C70.6026 27.9323 70.1495 28.1589 69.6234 28.3203L69.0297 28.6094H65.4125L65.3969 27.0547H68.1078C68.5766 27.0547 68.9672 26.9714 69.2797 26.8047C69.5922 26.638 69.8266 26.4115 69.9828 26.125C70.1443 25.8333 70.225 25.5052 70.225 25.1406C70.225 24.7448 70.1469 24.401 69.9906 24.1094C69.8396 23.8125 69.6052 23.5859 69.2875 23.4297C68.9698 23.2682 68.5661 23.1875 68.0766 23.1875H66.0141V33H64.0531V21.625ZM70.5453 33L67.8734 27.8906L69.9281 27.8828L72.6391 32.8984V33H70.5453ZM77.4703 33.1562C76.8453 33.1562 76.2802 33.0547 75.775 32.8516C75.275 32.6432 74.8479 32.3542 74.4938 31.9844C74.1448 31.6146 73.8766 31.1797 73.6891 30.6797C73.5016 30.1797 73.4078 29.6406 73.4078 29.0625V28.75C73.4078 28.0885 73.5042 27.4896 73.6969 26.9531C73.8896 26.4167 74.1578 25.9583 74.5016 25.5781C74.8453 25.1927 75.2516 24.8984 75.7203 24.6953C76.1891 24.4922 76.6969 24.3906 77.2438 24.3906C77.8479 24.3906 78.3766 24.4922 78.8297 24.6953C79.2828 24.8984 79.6578 25.1849 79.9547 25.5547C80.2568 25.9193 80.4807 26.3542 80.6266 26.8594C80.7776 27.3646 80.8531 27.9219 80.8531 28.5312V29.3359H74.3219V27.9844H78.9938V27.8359C78.9833 27.4974 78.9156 27.1797 78.7906 26.8828C78.6708 26.5859 78.4859 26.3464 78.2359 26.1641C77.9859 25.9818 77.6526 25.8906 77.2359 25.8906C76.9234 25.8906 76.6448 25.9583 76.4 26.0938C76.1604 26.224 75.9599 26.4141 75.7984 26.6641C75.637 26.9141 75.512 27.2161 75.4234 27.5703C75.3401 27.9193 75.2984 28.3125 75.2984 28.75V29.0625C75.2984 29.4323 75.3479 29.776 75.4469 30.0938C75.551 30.4062 75.7021 30.6797 75.9 30.9141C76.0979 31.1484 76.3375 31.3333 76.6188 31.4688C76.9 31.599 77.2203 31.6641 77.5797 31.6641C78.0328 31.6641 78.4365 31.5729 78.7906 31.3906C79.1448 31.2083 79.4521 30.9505 79.7125 30.6172L80.7047 31.5781C80.5224 31.8438 80.2854 32.099 79.9938 32.3438C79.7021 32.5833 79.3453 32.7786 78.9234 32.9297C78.5068 33.0807 78.0224 33.1562 77.4703 33.1562ZM84.0125 26.1719V36.25H82.1297V24.5469H83.8641L84.0125 26.1719ZM89.5203 28.6953V28.8594C89.5203 29.474 89.4474 30.0443 89.3016 30.5703C89.1609 31.0911 88.95 31.5469 88.6687 31.9375C88.3927 32.3229 88.0516 32.6224 87.6453 32.8359C87.2391 33.0495 86.7703 33.1562 86.2391 33.1562C85.713 33.1562 85.2521 33.0599 84.8562 32.8672C84.4656 32.6693 84.1349 32.3906 83.8641 32.0312C83.5932 31.6719 83.3745 31.25 83.2078 30.7656C83.0464 30.276 82.9318 29.7396 82.8641 29.1562V28.5234C82.9318 27.9036 83.0464 27.3411 83.2078 26.8359C83.3745 26.3307 83.5932 25.8958 83.8641 25.5312C84.1349 25.1667 84.4656 24.8854 84.8562 24.6875C85.2469 24.4896 85.7026 24.3906 86.2234 24.3906C86.7547 24.3906 87.226 24.4948 87.6375 24.7031C88.049 24.9062 88.3953 25.1979 88.6766 25.5781C88.9578 25.9531 89.1687 26.4062 89.3094 26.9375C89.45 27.4635 89.5203 28.0495 89.5203 28.6953ZM87.6375 28.8594V28.6953C87.6375 28.3047 87.601 27.9427 87.5281 27.6094C87.4552 27.2708 87.3406 26.974 87.1844 26.7188C87.0281 26.4635 86.8276 26.2656 86.5828 26.125C86.3432 25.9792 86.0542 25.9062 85.7156 25.9062C85.3823 25.9062 85.0958 25.9635 84.8562 26.0781C84.6167 26.1875 84.4161 26.3411 84.2547 26.5391C84.0932 26.737 83.9682 26.9688 83.8797 27.2344C83.7911 27.4948 83.7286 27.7786 83.6922 28.0859V29.6016C83.7547 29.9766 83.8615 30.3203 84.0125 30.6328C84.1635 30.9453 84.3771 31.1953 84.6531 31.3828C84.9344 31.5651 85.2937 31.6562 85.7312 31.6562C86.0698 31.6562 86.3589 31.5833 86.5984 31.4375C86.838 31.2917 87.0333 31.0911 87.1844 30.8359C87.3406 30.5755 87.4552 30.276 87.5281 29.9375C87.601 29.599 87.6375 29.2396 87.6375 28.8594ZM95.6875 31.3047V27.2734C95.6875 26.9714 95.6328 26.7109 95.5234 26.4922C95.4141 26.2734 95.2474 26.1042 95.0234 25.9844C94.8047 25.8646 94.5286 25.8047 94.1953 25.8047C93.888 25.8047 93.6224 25.8568 93.3984 25.9609C93.1745 26.0651 93 26.2057 92.875 26.3828C92.75 26.5599 92.6875 26.7604 92.6875 26.9844H90.8125C90.8125 26.651 90.8932 26.3281 91.0547 26.0156C91.2161 25.7031 91.4505 25.4245 91.7578 25.1797C92.0651 24.9349 92.4323 24.7422 92.8594 24.6016C93.2865 24.4609 93.7656 24.3906 94.2969 24.3906C94.9323 24.3906 95.4948 24.4974 95.9844 24.7109C96.4792 24.9245 96.8672 25.2474 97.1484 25.6797C97.4349 26.1068 97.5781 26.6432 97.5781 27.2891V31.0469C97.5781 31.4323 97.6042 31.7786 97.6562 32.0859C97.7135 32.388 97.7943 32.651 97.8984 32.875V33H95.9688C95.8802 32.7969 95.8099 32.5391 95.7578 32.2266C95.7109 31.9089 95.6875 31.6016 95.6875 31.3047ZM95.9609 27.8594L95.9766 29.0234H94.625C94.276 29.0234 93.9688 29.0573 93.7031 29.125C93.4375 29.1875 93.2161 29.2812 93.0391 29.4062C92.862 29.5312 92.7292 29.6823 92.6406 29.8594C92.5521 30.0365 92.5078 30.237 92.5078 30.4609C92.5078 30.6849 92.5599 30.8906 92.6641 31.0781C92.7682 31.2604 92.9193 31.4036 93.1172 31.5078C93.3203 31.612 93.5651 31.6641 93.8516 31.6641C94.237 31.6641 94.5729 31.5859 94.8594 31.4297C95.151 31.2682 95.3802 31.0729 95.5469 30.8438C95.7135 30.6094 95.8021 30.388 95.8125 30.1797L96.4219 31.0156C96.3594 31.2292 96.2526 31.4583 96.1016 31.7031C95.9505 31.9479 95.7526 32.1823 95.5078 32.4062C95.2682 32.625 94.9792 32.8047 94.6406 32.9453C94.3073 33.0859 93.9219 33.1562 93.4844 33.1562C92.9323 33.1562 92.4401 33.0469 92.0078 32.8281C91.5755 32.6042 91.237 32.3047 90.9922 31.9297C90.7474 31.5495 90.625 31.1198 90.625 30.6406C90.625 30.1927 90.7083 29.7969 90.875 29.4531C91.0469 29.1042 91.2969 28.8125 91.625 28.5781C91.9583 28.3438 92.3646 28.1667 92.8438 28.0469C93.3229 27.9219 93.8698 27.8594 94.4844 27.8594H95.9609ZM101.363 24.5469V33H99.4719V24.5469H101.363ZM99.3469 22.3281C99.3469 22.0417 99.4406 21.8047 99.6281 21.6172C99.8208 21.4245 100.086 21.3281 100.425 21.3281C100.758 21.3281 101.021 21.4245 101.214 21.6172C101.407 21.8047 101.503 22.0417 101.503 22.3281C101.503 22.6094 101.407 22.8438 101.214 23.0312C101.021 23.2188 100.758 23.3125 100.425 23.3125C100.086 23.3125 99.8208 23.2188 99.6281 23.0312C99.4406 22.8438 99.3469 22.6094 99.3469 22.3281ZM105.116 26.1562V33H103.233V24.5469H105.03L105.116 26.1562ZM107.702 24.4922L107.686 26.2422C107.571 26.2214 107.446 26.2057 107.311 26.1953C107.181 26.1849 107.051 26.1797 106.92 26.1797C106.597 26.1797 106.314 26.2266 106.069 26.3203C105.824 26.4089 105.618 26.5391 105.452 26.7109C105.29 26.8776 105.165 27.0807 105.077 27.3203C104.988 27.5599 104.936 27.8281 104.92 28.125L104.491 28.1562C104.491 27.625 104.543 27.1328 104.647 26.6797C104.751 26.2266 104.907 25.8281 105.116 25.4844C105.329 25.1406 105.595 24.8724 105.912 24.6797C106.235 24.487 106.608 24.3906 107.03 24.3906C107.144 24.3906 107.267 24.401 107.397 24.4219C107.532 24.4427 107.634 24.4661 107.702 24.4922Z" fill="#1B1C21"/>
</g>
</svg>
