<svg width="119" height="32" viewBox="0 0 119 32" fill="none" xmlns="http://www.w3.org/2000/svg">
<rect width="119" height="32" rx="16" fill="#FF3E79"/>
<path d="M49.1664 15.5352V15.9395C49.1664 16.5879 49.0785 17.1699 48.9027 17.6855C48.727 18.2012 48.4789 18.6406 48.1586 19.0039C47.8383 19.3633 47.4555 19.6387 47.0102 19.8301C46.5687 20.0215 46.0785 20.1172 45.5395 20.1172C45.0043 20.1172 44.5141 20.0215 44.0687 19.8301C43.6273 19.6387 43.2445 19.3633 42.9203 19.0039C42.5961 18.6406 42.3441 18.2012 42.1645 17.6855C41.9887 17.1699 41.9008 16.5879 41.9008 15.9395V15.5352C41.9008 14.8828 41.9887 14.3008 42.1645 13.7891C42.3402 13.2734 42.5883 12.834 42.9086 12.4707C43.2328 12.1074 43.6156 11.8301 44.057 11.6387C44.5023 11.4473 44.9926 11.3516 45.5277 11.3516C46.0668 11.3516 46.557 11.4473 46.9984 11.6387C47.4437 11.8301 47.8266 12.1074 48.1469 12.4707C48.4711 12.834 48.7211 13.2734 48.8969 13.7891C49.0766 14.3008 49.1664 14.8828 49.1664 15.5352ZM47.391 15.9395V15.5234C47.391 15.0703 47.35 14.6719 47.268 14.3281C47.1859 13.9844 47.0648 13.6953 46.9047 13.4609C46.7445 13.2266 46.5492 13.0508 46.3187 12.9336C46.0883 12.8125 45.8246 12.752 45.5277 12.752C45.2309 12.752 44.9672 12.8125 44.7367 12.9336C44.5102 13.0508 44.3168 13.2266 44.1566 13.4609C44.0004 13.6953 43.8812 13.9844 43.7992 14.3281C43.7172 14.6719 43.6762 15.0703 43.6762 15.5234V15.9395C43.6762 16.3887 43.7172 16.7871 43.7992 17.1348C43.8812 17.4785 44.0023 17.7695 44.1625 18.0078C44.3227 18.2422 44.518 18.4199 44.7484 18.541C44.9789 18.6621 45.2426 18.7227 45.5395 18.7227C45.8363 18.7227 46.1 18.6621 46.3305 18.541C46.5609 18.4199 46.7543 18.2422 46.9105 18.0078C47.0668 17.7695 47.1859 17.4785 47.268 17.1348C47.35 16.7871 47.391 16.3887 47.391 15.9395ZM50.282 11.4688H53.4637C54.116 11.4688 54.6766 11.5664 55.1453 11.7617C55.618 11.957 55.9812 12.2461 56.2352 12.6289C56.4891 13.0117 56.616 13.4824 56.616 14.041C56.616 14.498 56.5379 14.8906 56.3816 15.2188C56.2293 15.543 56.0125 15.8145 55.7312 16.0332C55.4539 16.248 55.1277 16.4199 54.7527 16.5488L54.1961 16.8418H51.4305L51.4187 15.4707H53.4754C53.784 15.4707 54.0398 15.416 54.243 15.3066C54.4461 15.1973 54.5984 15.0449 54.7 14.8496C54.8055 14.6543 54.8582 14.4277 54.8582 14.1699C54.8582 13.8965 54.8074 13.6602 54.7059 13.4609C54.6043 13.2617 54.45 13.1094 54.243 13.0039C54.0359 12.8984 53.7762 12.8457 53.4637 12.8457H52.0398V20H50.282V11.4688ZM55.0516 20L53.1062 16.1973L54.9637 16.1855L56.9324 19.918V20H55.0516ZM60.4387 20H58.5812L58.593 18.6289H60.4387C60.8996 18.6289 61.2883 18.5254 61.6047 18.3184C61.9211 18.1074 62.1594 17.8008 62.3195 17.3984C62.4836 16.9961 62.5656 16.5098 62.5656 15.9395V15.5234C62.5656 15.0859 62.5187 14.7012 62.425 14.3691C62.3352 14.0371 62.2004 13.7578 62.0207 13.5312C61.841 13.3047 61.6203 13.1348 61.3586 13.0215C61.0969 12.9043 60.7961 12.8457 60.4562 12.8457H58.5461V11.4688H60.4562C61.0266 11.4688 61.548 11.5664 62.0207 11.7617C62.4973 11.9531 62.9094 12.2285 63.257 12.5879C63.6047 12.9473 63.8723 13.377 64.0598 13.877C64.2512 14.373 64.3469 14.9258 64.3469 15.5352V15.9395C64.3469 16.5449 64.2512 17.0977 64.0598 17.5977C63.8723 18.0977 63.6047 18.5273 63.257 18.8867C62.9133 19.2422 62.5012 19.5176 62.0207 19.7129C61.5441 19.9043 61.0168 20 60.4387 20ZM59.5773 11.4688V20H57.8195V11.4688H59.5773ZM71.1988 18.6289V20H66.6578V18.6289H71.1988ZM67.232 11.4688V20H65.4742V11.4688H67.232ZM70.607 14.9434V16.2793H66.6578V14.9434H70.607ZM71.193 11.4688V12.8457H66.6578V11.4688H71.193ZM72.0742 11.4688H75.2559C75.9082 11.4688 76.4687 11.5664 76.9375 11.7617C77.4102 11.957 77.7734 12.2461 78.0273 12.6289C78.2812 13.0117 78.4082 13.4824 78.4082 14.041C78.4082 14.498 78.3301 14.8906 78.1738 15.2188C78.0215 15.543 77.8047 15.8145 77.5234 16.0332C77.2461 16.248 76.9199 16.4199 76.5449 16.5488L75.9883 16.8418H73.2227L73.2109 15.4707H75.2676C75.5762 15.4707 75.832 15.416 76.0352 15.3066C76.2383 15.1973 76.3906 15.0449 76.4922 14.8496C76.5977 14.6543 76.6504 14.4277 76.6504 14.1699C76.6504 13.8965 76.5996 13.6602 76.498 13.4609C76.3965 13.2617 76.2422 13.1094 76.0352 13.0039C75.8281 12.8984 75.5684 12.8457 75.2559 12.8457H73.832V20H72.0742V11.4688ZM76.8437 20L74.8984 16.1973L76.7559 16.1855L78.7246 19.918V20H76.8437Z" fill="white"/>
<rect x="87" y="4" width="24" height="24" rx="12" fill="#FF3E79"/>
<path fill-rule="evenodd" clip-rule="evenodd" d="M99.8 15.9999L96.7916 13.229C96.3641 12.8353 96.3611 12.1614 96.7851 11.7639L96.9203 11.6372C97.3032 11.2782 97.8985 11.2763 98.2836 11.6329L102.938 15.9426C102.971 15.9735 102.971 16.0263 102.938 16.0572L98.3467 20.3085C97.9261 20.698 97.2758 20.696 96.8576 20.3039C96.3945 19.8697 96.3977 19.1336 96.8646 18.7036L99.8 15.9999Z" fill="white"/>
</svg>
