<svg width="136" height="32" viewBox="0 0 136 32" fill="none" xmlns="http://www.w3.org/2000/svg">
<rect width="136" height="32" rx="16" fill="#FF3E79"/>
<path d="M72.3741 17.7676C72.3741 17.6152 72.3507 17.4785 72.3038 17.3574C72.2608 17.2324 72.1788 17.1191 72.0577 17.0176C71.9366 16.9121 71.7667 16.8086 71.5479 16.707C71.3292 16.6055 71.046 16.5 70.6983 16.3906C70.3116 16.2656 69.9444 16.125 69.5968 15.9688C69.253 15.8125 68.9483 15.6309 68.6827 15.4238C68.421 15.2129 68.214 14.9688 68.0616 14.6914C67.9132 14.4141 67.839 14.0918 67.839 13.7246C67.839 13.3691 67.9171 13.0469 68.0733 12.7578C68.2296 12.4648 68.4483 12.2148 68.7296 12.0078C69.0108 11.7969 69.3429 11.6348 69.7257 11.5215C70.1124 11.4082 70.5362 11.3516 70.9972 11.3516C71.6261 11.3516 72.1749 11.4648 72.6436 11.6914C73.1124 11.918 73.4757 12.2285 73.7335 12.623C73.9952 13.0176 74.1261 13.4688 74.1261 13.9766H72.38C72.38 13.7266 72.3272 13.5078 72.2218 13.3203C72.1202 13.1289 71.964 12.9785 71.753 12.8691C71.546 12.7598 71.2843 12.7051 70.9679 12.7051C70.6632 12.7051 70.4093 12.752 70.2061 12.8457C70.003 12.9355 69.8507 13.0586 69.7491 13.2148C69.6475 13.3672 69.5968 13.5391 69.5968 13.7305C69.5968 13.875 69.6319 14.0059 69.7022 14.123C69.7765 14.2402 69.8858 14.3496 70.0304 14.4512C70.1749 14.5527 70.3526 14.6484 70.5636 14.7383C70.7745 14.8281 71.0186 14.916 71.296 15.002C71.7608 15.1426 72.169 15.3008 72.5206 15.4766C72.8761 15.6523 73.1729 15.8496 73.4112 16.0684C73.6495 16.2871 73.8292 16.5352 73.9503 16.8125C74.0714 17.0898 74.1319 17.4043 74.1319 17.7559C74.1319 18.127 74.0597 18.459 73.9151 18.752C73.7706 19.0449 73.5616 19.293 73.2882 19.4961C73.0147 19.6992 72.6886 19.8535 72.3097 19.959C71.9308 20.0645 71.5069 20.1172 71.0382 20.1172C70.6163 20.1172 70.2003 20.0625 69.7901 19.9531C69.38 19.8398 69.0069 19.6699 68.671 19.4434C68.339 19.2168 68.0733 18.9277 67.8741 18.5762C67.6749 18.2246 67.5753 17.8086 67.5753 17.3281H69.339C69.339 17.5938 69.38 17.8184 69.462 18.002C69.544 18.1855 69.6593 18.334 69.8077 18.4473C69.96 18.5605 70.1397 18.6426 70.3468 18.6934C70.5577 18.7441 70.7882 18.7695 71.0382 18.7695C71.3429 18.7695 71.5929 18.7266 71.7882 18.6406C71.9874 18.5547 72.1339 18.4355 72.2276 18.2832C72.3253 18.1309 72.3741 17.959 72.3741 17.7676ZM80.9018 18.6289V20H76.3608V18.6289H80.9018ZM76.9351 11.4688V20H75.1772V11.4688H76.9351ZM80.3101 14.9434V16.2793H76.3608V14.9434H80.3101ZM80.896 11.4688V12.8457H76.3608V11.4688H80.896ZM88.7206 11.4688V20H86.9628L83.535 14.2812V20H81.7772V11.4688H83.535L86.9686 17.1934V11.4688H88.7206ZM92.719 20H90.8616L90.8733 18.6289H92.719C93.18 18.6289 93.5686 18.5254 93.885 18.3184C94.2015 18.1074 94.4397 17.8008 94.5999 17.3984C94.764 16.9961 94.846 16.5098 94.846 15.9395V15.5234C94.846 15.0859 94.7991 14.7012 94.7054 14.3691C94.6155 14.0371 94.4808 13.7578 94.3011 13.5312C94.1214 13.3047 93.9007 13.1348 93.639 13.0215C93.3772 12.9043 93.0765 12.8457 92.7366 12.8457H90.8265V11.4688H92.7366C93.3069 11.4688 93.8284 11.5664 94.3011 11.7617C94.7776 11.9531 95.1897 12.2285 95.5374 12.5879C95.885 12.9473 96.1526 13.377 96.3401 13.877C96.5315 14.373 96.6272 14.9258 96.6272 15.5352V15.9395C96.6272 16.5449 96.5315 17.0977 96.3401 17.5977C96.1526 18.0977 95.885 18.5273 95.5374 18.8867C95.1936 19.2422 94.7815 19.5176 94.3011 19.7129C93.8245 19.9043 93.2972 20 92.719 20ZM91.8577 11.4688V20H90.0999V11.4688H91.8577Z" fill="white"/>
<rect x="99.4286" y="4" width="27.4286" height="24" rx="12" fill="#FF3E79"/>
<path fill-rule="evenodd" clip-rule="evenodd" d="M114.057 15.9999L110.672 13.2717C110.178 12.8736 110.175 12.1222 110.665 11.7199L110.913 11.517C111.28 11.216 111.808 11.2144 112.176 11.5131L117.622 15.9254C117.67 15.9638 117.67 16.0361 117.622 16.0745L112.275 20.4064C111.849 20.752 111.238 20.7501 110.814 20.402C110.247 19.9367 110.251 19.0678 110.822 18.6074L114.057 15.9999Z" fill="white"/>
</svg>
